<svg width="40" height="40" viewBox="0 0 40 40" fill="none" xmlns="http://www.w3.org/2000/svg">
<g clip-path="url(#clip0)">
<path d="M14.113 30.4222C13.7216 30.2579 13.4765 29.8644 13.5018 29.4406C13.527 29.0168 13.8171 28.6552 14.2253 28.5386C15.0717 28.2967 15.8161 28.0702 16.5026 27.8613C18.5806 27.2289 20.1307 26.7572 22.3896 26.5062C26.933 26.0013 27.4706 26.0001 32 26.0001C32.5523 26.0001 33 26.4478 33 27.0001C33 27.5524 32.5523 28.0001 32 28.0001H31.9638C27.5268 28.0001 27.0549 28.0001 22.6104 28.494C20.7387 28.7019 19.4651 29.056 17.7392 29.5776C19.0449 29.971 20.6124 30.3563 22.0995 30.505C27.0497 31.0001 29.5139 31.0001 31.9926 31.0001H32C32.5523 31.0001 33 31.4478 33 32.0001C33 32.5524 32.5523 33.0001 32 33.0001C29.4812 33.0001 26.9454 32.9996 21.9005 32.4951C20.0057 32.3056 18.0552 31.7825 16.5998 31.3181C15.8673 31.0844 15.2498 30.8621 14.8141 30.6977C14.5961 30.6155 14.4232 30.5476 14.3036 30.4998C14.2439 30.4759 14.1974 30.457 14.1653 30.4438L14.128 30.4284L14.1177 30.4241L14.113 30.4222Z" fill="#3860D9"/>
<path fill-rule="evenodd" clip-rule="evenodd" d="M18.4832 4.22006e-10C18.4936 -0.000162392 18.504 -0.000163129 18.5145 4.22006e-10H38C38.2754 4.22006e-10 38.5249 0.111366 38.7057 0.291529L38.7071 0.292889L39.7071 1.29289C39.8946 1.48043 40 1.73478 40 2V19C40 19.2652 39.8946 19.5196 39.7071 19.7071L39.4142 20L39.7071 20.2929C39.8946 20.4804 40 20.7348 40 21V38C40 38.2652 39.8946 38.5196 39.7071 38.7071L38.7091 39.7051C38.528 39.8872 38.2772 40 38 40H19.5161C19.5061 40.0001 19.496 40.0002 19.4859 40H4C3.80258 40 3.60957 39.9416 3.4453 39.8321C3.20412 39.6713 2.99198 39.4604 2.79645 39.2486C2.45669 38.8805 2.0302 38.3239 1.61342 37.5251C0.778026 35.9239 0 33.3858 0 29.5C0 25.6142 0.778026 23.0761 1.61342 21.4749C1.94538 20.8387 2.2835 20.3561 2.57906 20C2.2835 19.6439 1.94538 19.1613 1.61342 18.5251C1.46085 18.2327 1.3102 17.909 1.16585 17.5516C1.08666 17.432 1.03256 17.2947 1.01078 17.1473C0.438604 15.5754 0 13.4175 0 10.5C0 6.61422 0.778026 4.0761 1.61342 2.47493C2.0302 1.6761 2.45669 1.11948 2.79645 0.751407C2.99212 0.539427 3.20403 0.328796 3.4453 0.16795C3.60957 0.058438 3.80258 4.22006e-10 4 4.22006e-10H18.4832ZM19.5326 38H35.8783C35.7902 37.8522 35.7016 37.694 35.6134 37.5251C34.778 35.9239 34 33.3858 34 29.5C34 25.6142 34.778 23.0761 35.6134 21.4749C35.7016 21.306 35.7902 21.1478 35.8783 21H19.5515C17.1873 21.2452 14.1951 22.1976 11.0548 23.2025L10.9736 23.2285C8.01117 24.1765 4.91694 25.1667 2.36032 25.4667C2.26819 25.9305 2.18942 26.4368 2.12924 26.9888C4.00059 26.9251 6.51147 26.5914 8.75746 26.0299C9.39089 25.8716 10.1625 25.6017 11.1 25.2737C14.9567 23.9247 21.6222 21.5931 33.0357 22.0007C33.5876 22.0204 34.0191 22.4838 33.9994 23.0358C33.9797 23.5877 33.5162 24.0191 32.9643 23.9994C21.9869 23.6074 15.7511 25.7776 11.8443 27.1372C10.8357 27.4883 9.98219 27.7853 9.24254 27.9702C6.79984 28.5809 4.05656 28.941 2.00482 28.9934C2.00164 29.1591 2 29.328 2 29.5C2 29.6699 2.0016 29.8368 2.00471 30.0005C3.52466 30.005 5.82822 30.0514 7.74254 30.5299C8.49049 30.7169 9.356 31.0278 10.3336 31.3788C10.5542 31.4581 10.7806 31.5394 11.0126 31.6217C12.3005 32.0791 13.85 32.604 15.783 33.1026C19.6444 34.0985 25.0798 35.0001 33 35.0001C33.5523 35.0001 34 35.4478 34 36.0001C34 36.5523 33.5523 37.0001 33 37.0001C24.9202 37.0001 19.3165 36.0794 15.2835 35.0392C13.2692 34.5197 11.6575 33.9731 10.3434 33.5065C10.0861 33.4151 9.84314 33.3279 9.61296 33.2454C8.64301 32.8974 7.89928 32.6307 7.25746 32.4702C5.63751 32.0652 3.62795 32.0091 2.12817 32.0013C2.1667 32.3564 2.21292 32.6926 2.26544 33.0107C3.06887 33.0725 4.06791 33.3949 5.09825 33.7719C5.75925 34.0138 6.51455 34.3109 7.31925 34.6274C7.93985 34.8715 8.59001 35.1272 9.24877 35.378C12.3433 36.5562 15.9512 37.7552 19.5326 38ZM2.77244 35.1227C3.19396 35.2283 3.73567 35.403 4.4109 35.6501C5.06563 35.8897 5.77197 36.1678 6.5458 36.4724C7.16344 36.7156 7.82437 36.9758 8.53714 37.2471C9.19348 37.497 9.88146 37.7515 10.5949 38H4.36991C4.33833 37.9686 4.30357 37.9327 4.26605 37.892C4.04331 37.6507 3.7198 37.2386 3.38658 36.5999C3.17959 36.2032 2.96702 35.7154 2.77244 35.1227ZM2.95594 23.361C5.13667 22.9926 7.73582 22.1647 10.4452 21.2977L10.5264 21.2717C10.8088 21.1813 11.0925 21.0905 11.3767 21H4.36991C4.33833 21.0314 4.30357 21.0673 4.26605 21.108C4.04331 21.3493 3.7198 21.7614 3.38658 22.4001C3.2431 22.6751 3.09694 22.9938 2.95594 23.361ZM34 4.49995C34 5.05224 33.5523 5.49995 33 5.49995C30.0681 5.49995 27.5557 4.69769 25.2311 3.88091C24.9846 3.79433 24.7407 3.7078 24.4991 3.62206L24.4981 3.6217C22.4409 2.89178 20.5369 2.21625 18.4497 2H4.36991C4.33833 2.03142 4.30357 2.06732 4.26605 2.10797C4.09888 2.28907 3.87495 2.56639 3.63275 2.96349C13.979 2.70527 19.8516 4.45185 23.4016 5.50764C24.0996 5.71523 24.7078 5.89612 25.2426 6.02981C27.771 6.66192 30.1069 6.99995 32 6.99995C32.5523 6.99995 33 7.44767 33 7.99995C33 8.55224 32.5523 8.99995 32 8.99995C29.8932 8.99995 27.387 8.62748 24.7575 7.9701C24.1885 7.82785 23.5549 7.63977 22.8376 7.42685C19.1799 6.34116 13.3408 4.60794 2.73549 4.99186C2.55441 5.56301 2.39062 6.2282 2.26381 6.99914C2.56577 6.99851 2.86388 6.99762 3.15777 6.99674C6.853 6.98568 9.9411 6.97644 13.1644 7.5136C14.1832 7.68339 15.1364 7.85162 16.0849 8.01903C17.9635 8.3506 19.824 8.67899 22.1415 9.01006C22.6006 9.07564 22.9544 9.4483 22.996 9.91021C23.0376 10.3721 22.7562 10.802 22.3163 10.9487L22.313 10.9498L22.3074 10.9516L22.2895 10.9574L22.2607 10.9667L22.2241 10.9783C22.1667 10.9964 22.0803 11.0231 21.9593 11.0594C21.7172 11.132 21.3356 11.2433 20.7677 11.401C19.6322 11.7164 17.7485 12.2187 14.7426 12.9701C9.85489 14.1921 5.03553 14.1838 2.27139 14.0465C2.39813 14.8042 2.56061 15.4588 2.73982 16.0218C9.76589 16.2101 14.2656 15.631 17.3873 14.8832C19.6053 14.3519 21.0658 13.764 22.3514 13.2464C22.9814 12.9928 23.5693 12.7561 24.1838 12.5513C27.2478 11.5299 30.3587 11 32 11C32.5523 11 33 11.4477 33 12C33 12.5522 32.5523 13 32 13C30.6413 13 27.7523 13.47 24.8163 14.4486C24.3733 14.5963 23.872 14.797 23.2966 15.0273C21.9527 15.5652 20.2049 16.2649 17.8532 16.8282C14.6746 17.5896 10.263 18.1597 3.63626 18.0422C3.87711 18.4363 4.09969 18.7118 4.26605 18.892C4.30357 18.9327 4.33833 18.9686 4.36991 19H16.9658C20.5657 18.7555 23.691 17.7941 26.2701 16.871C26.8086 16.6782 27.3409 16.4804 27.8505 16.291C28.5314 16.038 29.1724 15.7998 29.7356 15.608C30.7198 15.2729 31.6798 15 32.5 15C33.0523 15 33.5 15.4477 33.5 16C33.5 16.5522 33.0523 17 32.5 17C32.0463 17 31.3694 17.1645 30.3803 17.5013C29.8271 17.6896 29.2425 17.9071 28.5968 18.1474L28.5956 18.1479C28.0881 18.3367 27.5426 18.5397 26.9441 18.754C26.7163 18.8355 26.4833 18.9177 26.2454 19H35.8783C35.7902 18.8522 35.7016 18.694 35.6134 18.5251C34.778 16.9239 34 14.3858 34 10.5C34 6.61422 34.778 4.07609 35.6134 2.47493C35.7016 2.30595 35.7902 2.14781 35.8783 2H25.9111C28.2054 2.80567 30.4383 3.49995 33 3.49995C33.5523 3.49995 34 3.94767 34 4.49995ZM2 10.5C2 9.97022 2.01551 9.47057 2.04408 8.99959C2.42776 8.99904 2.8027 8.99801 3.16958 8.99701L3.1712 8.997C6.88487 8.98683 9.79022 8.97887 12.8357 9.4864C13.8178 9.65007 14.7551 9.81545 15.6961 9.98148L15.6975 9.98173C16.2226 10.0744 16.749 10.1673 17.2857 10.2603C16.435 10.4807 15.4332 10.7359 14.2575 11.0299C9.44159 12.2339 4.65063 12.1788 2.04601 12.0317C2.01621 11.5516 2 11.0415 2 10.5ZM38 2.42526C37.8164 2.6644 37.6036 2.98421 37.3866 3.40006C36.722 4.6739 36 6.88577 36 10.5C36 14.1142 36.722 16.3261 37.3866 17.5999C37.6036 18.0158 37.8164 18.3356 38 18.5747V2.42526ZM38 21.4253C37.8164 21.6644 37.6036 21.9842 37.3866 22.4001C36.722 23.6739 36 25.8858 36 29.5C36 33.1142 36.722 35.3261 37.3866 36.5999C37.6036 37.0158 37.8164 37.3356 38 37.5747V21.4253Z" fill="#3860D9"/>
<g opacity="0.15">
<path d="M38 1L35.5 5.5L35 11.5L36.5 19L37.5 19.5L39 19V2L38 1Z" fill="#3860D9"/>
<path d="M38 20L35.5 24.5L35 30.5L36.5 38L37.5 38.5L39 38V21L38 20Z" fill="#3860D9"/>
</g>
</g>
<defs>
<clipPath id="clip0">
<rect width="40" height="40" fill="white"/>
</clipPath>
</defs>
</svg>
