<svg width="40" height="40" viewBox="0 0 40 40" fill="none" xmlns="http://www.w3.org/2000/svg">
<path d="M10 6C10 2.68629 12.6863 0 16 0H34C37.3137 0 40 2.68629 40 6V34C40 37.3137 37.3137 40 34 40H16C15.4477 40 15 39.5523 15 39C15 38.4477 15.4477 38 16 38H34C36.2091 38 38 36.2091 38 34V6C38 3.79086 36.2091 2 34 2H16C13.7909 2 12 3.79086 12 6V7C12 7.55228 11.5523 8 11 8C10.4477 8 10 7.55228 10 7V6Z" fill="#3860D9"/>
<path fill-rule="evenodd" clip-rule="evenodd" d="M16 10C16 9.44771 16.4477 9 17 9H33C34.6569 9 36 10.3431 36 12V28C36 29.6569 34.6569 31 33 31H17C15.3431 31 14 29.6569 14 28V23C14 22.4477 14.4477 22 15 22H20V17H19C18.4477 17 18 16.5523 18 16C18 15.4477 18.4477 15 19 15H34V12C34 11.4477 33.5523 11 33 11H17C16.4477 11 16 10.5523 16 10ZM22 17V22H28V17H22ZM20 29V24H16V28C16 28.5523 16.4477 29 17 29H20ZM22 29V24H28V29H22ZM30 24V29H33C33.5523 29 34 28.5523 34 28V24H30ZM30 17V22H34V17H30Z" fill="#3860D9"/>
<path d="M24 34C24 33.4477 24.4477 33 25 33C25.5523 33 26 33.4477 26 34C26 34.5523 25.5523 35 25 35C24.4477 35 24 34.5523 24 34Z" fill="#3860D9"/>
<path d="M28 34C28 33.4477 28.4477 33 29 33C29.5523 33 30 33.4477 30 34C30 34.5523 29.5523 35 29 35C28.4477 35 28 34.5523 28 34Z" fill="#3860D9"/>
<path d="M20 34C20 33.4477 20.4477 33 21 33C21.5523 33 22 33.4477 22 34C22 34.5523 21.5523 35 21 35C20.4477 35 20 34.5523 20 34Z" fill="#3860D9"/>
<path d="M19 6C19 5.44772 19.4477 5 20 5H30C30.5523 5 31 5.44772 31 6C31 6.55228 30.5523 7 30 7H20C19.4477 7 19 6.55228 19 6Z" fill="#3860D9"/>
<path d="M8 22C8.55229 22 9 22.4477 9 23V25C9 25.5523 8.55229 26 8 26C7.44772 26 7 25.5523 7 25V23C7 22.4477 7.44772 22 8 22Z" fill="#3860D9"/>
<path fill-rule="evenodd" clip-rule="evenodd" d="M5.5 13C4.11929 13 3 14.1193 3 15.5C3 16.8807 4.11929 18 5.5 18H10.5C11.8807 18 13 16.8807 13 15.5C13 14.1193 11.8807 13 10.5 13H5.5ZM5 15.5C5 15.2239 5.22386 15 5.5 15H10.5C10.7761 15 11 15.2239 11 15.5C11 15.7761 10.7761 16 10.5 16H5.5C5.22386 16 5 15.7761 5 15.5Z" fill="#3860D9"/>
<path fill-rule="evenodd" clip-rule="evenodd" d="M5 10C2.23858 10 0 12.2386 0 15V16C0 18.419 1.71776 20.4367 4 20.9V32.7639C3.38625 33.3132 3 34.1115 3 35V37C3 38.6569 4.34315 40 6 40H10C11.6569 40 13 38.6569 13 37V35C13 34.1115 12.6137 33.3132 12 32.7639V20.9C14.2822 20.4367 16 18.419 16 16V15C16 12.2386 13.7614 10 11 10H5ZM10 21V32H6V21H10ZM5 35C5 34.4477 5.44772 34 6 34H10C10.5523 34 11 34.4477 11 35V37C11 37.5523 10.5523 38 10 38H6C5.44772 38 5 37.5523 5 37V35ZM5 19H11C12.6569 19 14 17.6569 14 16V15C14 13.3431 12.6569 12 11 12H5C3.34315 12 2 13.3431 2 15V16C2 17.6569 3.34315 19 5 19Z" fill="#3860D9"/>
<g opacity="0.15">
<path d="M39 5C39 2.79086 37.2091 1 35 1H18C15.7909 1 14 2.79086 14 5C14 5.55228 14.4477 6 15 6H38C38.5523 6 39 5.55228 39 5Z" fill="#3860D9"/>
<path d="M35 13C35.5523 13 36 13.4477 36 14V29C36 29.5523 35.5523 30 35 30H22C21.4477 30 21 29.5523 21 29V14C21 13.4477 21.4477 13 22 13H35Z" fill="#3860D9"/>
<path d="M4 15.5C4 14.6716 4.67157 14 5.5 14H9.5C10.3284 14 11 14.6716 11 15.5C11 16.3284 10.3284 17 9.5 17H5.5C4.67157 17 4 16.3284 4 15.5Z" fill="#3860D9"/>
<path d="M10 24H6V33H10V24Z" fill="#3860D9"/>
<path d="M6 35C5.44772 35 5 35.4477 5 36V39H11V35H6Z" fill="#3860D9"/>
<path d="M36 39H15V35C15 34.4477 15.4477 34 16 34H38C38.5523 34 39 34.4477 39 35V36C39 37.6569 37.6569 39 36 39Z" fill="#3860D9"/>
</g>
</svg>
