<svg width="40" height="40" viewBox="0 0 40 40" fill="none" xmlns="http://www.w3.org/2000/svg">
<path d="M7 0C7.55228 0 8 0.447715 8 1V12H15C15.5523 12 16 12.4477 16 13C16 13.5523 15.5523 14 15 14H1C0.447715 14 0 13.5523 0 13C0 12.4477 0.447715 12 1 12H6V1C6 0.447715 6.44772 0 7 0Z" fill="#3860D9"/>
<path d="M1 26C0.447715 26 0 26.4477 0 27C0 27.5523 0.447715 28 1 28H6V39C6 39.5523 6.44772 40 7 40C7.55228 40 8 39.5523 8 39V28H11C11.5523 28 12 27.5523 12 27C12 26.4477 11.5523 26 11 26H1Z" fill="#3860D9"/>
<path d="M34 1C34 0.447715 33.5523 0 33 0C32.4477 0 32 0.447715 32 1V9C32 9.55229 32.4477 10 33 10C33.5523 10 34 9.55229 34 9V1Z" fill="#3860D9"/>
<path fill-rule="evenodd" clip-rule="evenodd" d="M21.2426 12C20.1818 12 19.1644 12.4214 18.4142 13.1716L15.1716 16.4142C14.4214 17.1644 14 18.1818 14 19.2426V37C14 38.6569 15.3431 40 17 40H39C39.5523 40 40 39.5523 40 39C40 38.4477 39.5523 38 39 38H36.4142L36.7071 37.7071C37.0976 37.3166 37.0976 36.6834 36.7071 36.2929C36.3166 35.9024 35.6834 35.9024 35.2929 36.2929L34.2929 37.2929C34.0976 37.4882 34 37.7441 34 38H30.4142L30.7071 37.7071C31.0976 37.3166 31.0976 36.6834 30.7071 36.2929C30.3166 35.9024 29.6834 35.9024 29.2929 36.2929L28.2929 37.2929C28.0976 37.4882 28 37.7441 28 38H24.4142L24.7071 37.7071C25.0976 37.3166 25.0976 36.6834 24.7071 36.2929C24.3166 35.9024 23.6834 35.9024 23.2929 36.2929L22.2929 37.2929C22.0976 37.4882 22 37.7441 22 38H18.4142L18.7071 37.7071C19.0976 37.3166 19.0976 36.6834 18.7071 36.2929C18.3166 35.9024 17.6834 35.9024 17.2929 36.2929L16.2929 37.2929C16.2296 37.3562 16.1765 37.4259 16.1337 37.4999C16.0487 37.3529 16 37.1821 16 37V32.001C16.0002 32.2566 16.0979 32.5121 16.2929 32.7071C16.6834 33.0976 17.3166 33.0976 17.7071 32.7071L18.7071 31.7071C19.0976 31.3166 19.0976 30.6834 18.7071 30.2929C18.3166 29.9024 17.6834 29.9024 17.2929 30.2929L16.2929 31.2929C16.0979 31.4879 16.0002 31.7434 16 31.999V26.001C16.0002 26.2566 16.0979 26.5121 16.2929 26.7071C16.6834 27.0976 17.3166 27.0976 17.7071 26.7071L18.7071 25.7071C19.0976 25.3166 19.0976 24.6834 18.7071 24.2929C18.3166 23.9024 17.6834 23.9024 17.2929 24.2929L16.2929 25.2929C16.0979 25.4879 16.0002 25.7434 16 25.999V20.001C16.0002 20.2566 16.0979 20.5121 16.2929 20.7071C16.6834 21.0976 17.3166 21.0976 17.7071 20.7071L18.7071 19.7071C18.9024 19.5118 19 19.2559 19 19H22.5858L22.2929 19.2929C21.9024 19.6834 21.9024 20.3166 22.2929 20.7071C22.6834 21.0976 23.3166 21.0976 23.7071 20.7071L24.7071 19.7071C24.9024 19.5118 25 19.2559 25 19H28.5858L28.2929 19.2929C27.9024 19.6834 27.9024 20.3166 28.2929 20.7071C28.6834 21.0976 29.3166 21.0976 29.7071 20.7071L30.7071 19.7071C30.9024 19.5118 31 19.2559 31 19H34.5858L34.2929 19.2929C33.9024 19.6834 33.9024 20.3166 34.2929 20.7071C34.6834 21.0976 35.3166 21.0976 35.7071 20.7071L36.7071 19.7071C36.9024 19.5118 37 19.2559 37 19H39C39.5523 19 40 18.5523 40 18C40 17.767 39.9203 17.5525 39.7866 17.3825C39.4751 16.9863 39.0625 16.6483 38.7071 16.2929C38.3166 15.9024 37.6834 15.9024 37.2929 16.2929C37.0976 16.4882 37 16.7441 37 17H33.4142L32.7071 16.2929C32.3166 15.9024 31.6834 15.9024 31.2929 16.2929C31.0976 16.4882 31 16.7441 31 17H27.4142L26.7071 16.2929C26.3166 15.9024 25.6834 15.9024 25.2929 16.2929C25.0976 16.4882 25 16.7441 25 17H21.4142L20.7071 16.2929C20.3166 15.9024 19.6834 15.9024 19.2929 16.2929C19.0976 16.4882 19 16.7441 19 17H17.4142L19.8284 14.5858C20.2035 14.2107 20.7122 14 21.2426 14H22C22 14.2559 22.0976 14.5118 22.2929 14.7071L23.2929 15.7071C23.6834 16.0976 24.3166 16.0976 24.7071 15.7071C25.0976 15.3166 25.0976 14.6834 24.7071 14.2929L24.4142 14H28C28 14.2559 28.0976 14.5118 28.2929 14.7071L29.2929 15.7071C29.6834 16.0976 30.3166 16.0976 30.7071 15.7071C31.0976 15.3166 31.0976 14.6834 30.7071 14.2929L30.4142 14H34C34 14.2559 34.0976 14.5118 34.2929 14.7071L35.2929 15.7071C35.6834 16.0976 36.3166 16.0976 36.7071 15.7071C37.0976 15.3166 37.0976 14.6834 36.7071 14.2929L36.4142 14H39C39.5523 14 40 13.5523 40 13C40 12.4477 39.5523 12 39 12H21.2426ZM16.5858 19H16.0148C16.005 19.0801 16 19.1611 16 19.2426V19.999C16.0002 19.7434 16.0979 19.4879 16.2929 19.2929L16.5858 19Z" fill="#3860D9"/>
<path d="M24.7071 24.2929C25.0976 24.6834 25.0976 25.3166 24.7071 25.7071L23.7071 26.7071C23.3166 27.0976 22.6834 27.0976 22.2929 26.7071C21.9024 26.3166 21.9024 25.6834 22.2929 25.2929L23.2929 24.2929C23.6834 23.9024 24.3166 23.9024 24.7071 24.2929Z" fill="#3860D9"/>
<path d="M30.7071 25.7071C31.0976 25.3166 31.0976 24.6834 30.7071 24.2929C30.3166 23.9024 29.6834 23.9024 29.2929 24.2929L28.2929 25.2929C27.9024 25.6834 27.9024 26.3166 28.2929 26.7071C28.6834 27.0976 29.3166 27.0976 29.7071 26.7071L30.7071 25.7071Z" fill="#3860D9"/>
<path d="M36.7071 25.7071C37.0976 25.3166 37.0976 24.6834 36.7071 24.2929C36.3166 23.9024 35.6834 23.9024 35.2929 24.2929L34.2929 25.2929C33.9024 25.6834 33.9024 26.3166 34.2929 26.7071C34.6834 27.0976 35.3166 27.0976 35.7071 26.7071L36.7071 25.7071Z" fill="#3860D9"/>
<path d="M24.7071 30.2929C25.0976 30.6834 25.0976 31.3166 24.7071 31.7071L23.7071 32.7071C23.3166 33.0976 22.6834 33.0976 22.2929 32.7071C21.9024 32.3166 21.9024 31.6834 22.2929 31.2929L23.2929 30.2929C23.6834 29.9024 24.3166 29.9024 24.7071 30.2929Z" fill="#3860D9"/>
<path d="M30.7071 30.2929C31.0976 30.6834 31.0976 31.3166 30.7071 31.7071L29.7071 32.7071C29.3166 33.0976 28.6834 33.0976 28.2929 32.7071C27.9024 32.3166 27.9024 31.6834 28.2929 31.2929L29.2929 30.2929C29.6834 29.9024 30.3166 29.9024 30.7071 30.2929Z" fill="#3860D9"/>
<path d="M36.7071 30.2929C37.0976 30.6834 37.0976 31.3166 36.7071 31.7071L35.7071 32.7071C35.3166 33.0976 34.6834 33.0976 34.2929 32.7071C33.9024 32.3166 33.9024 31.6834 34.2929 31.2929L35.2929 30.2929C35.6834 29.9024 36.3166 29.9024 36.7071 30.2929Z" fill="#3860D9"/>
<path d="M21.7071 34.7071C22.0976 34.3166 22.0976 33.6834 21.7071 33.2929C21.3166 32.9024 20.6834 32.9024 20.2929 33.2929L19.2929 34.2929C18.9024 34.6834 18.9024 35.3166 19.2929 35.7071C19.6834 36.0976 20.3166 36.0976 20.7071 35.7071L21.7071 34.7071Z" fill="#3860D9"/>
<path d="M27.7071 34.7071C28.0976 34.3166 28.0976 33.6834 27.7071 33.2929C27.3166 32.9024 26.6834 32.9024 26.2929 33.2929L25.2929 34.2929C24.9024 34.6834 24.9024 35.3166 25.2929 35.7071C25.6834 36.0976 26.3166 36.0976 26.7071 35.7071L27.7071 34.7071Z" fill="#3860D9"/>
<path d="M33.7071 34.7071C34.0976 34.3166 34.0976 33.6834 33.7071 33.2929C33.3166 32.9024 32.6834 32.9024 32.2929 33.2929L31.2929 34.2929C30.9024 34.6834 30.9024 35.3166 31.2929 35.7071C31.6834 36.0976 32.3166 36.0976 32.7071 35.7071L33.7071 34.7071Z" fill="#3860D9"/>
<path d="M39.7071 34.7071C40.0976 34.3166 40.0976 33.6834 39.7071 33.2929C39.3166 32.9024 38.6834 32.9024 38.2929 33.2929L37.2929 34.2929C36.9024 34.6834 36.9024 35.3166 37.2929 35.7071C37.6834 36.0976 38.3166 36.0976 38.7071 35.7071L39.7071 34.7071Z" fill="#3860D9"/>
<path d="M21.7071 22.7071C22.0976 22.3166 22.0976 21.6834 21.7071 21.2929C21.3166 20.9024 20.6834 20.9024 20.2929 21.2929L19.2929 22.2929C18.9024 22.6834 18.9024 23.3166 19.2929 23.7071C19.6834 24.0976 20.3166 24.0976 20.7071 23.7071L21.7071 22.7071Z" fill="#3860D9"/>
<path d="M27.7071 21.2929C28.0976 21.6834 28.0976 22.3166 27.7071 22.7071L26.7071 23.7071C26.3166 24.0976 25.6834 24.0976 25.2929 23.7071C24.9024 23.3166 24.9024 22.6834 25.2929 22.2929L26.2929 21.2929C26.6834 20.9024 27.3166 20.9024 27.7071 21.2929Z" fill="#3860D9"/>
<path d="M33.7071 22.7071C34.0976 22.3166 34.0976 21.6834 33.7071 21.2929C33.3166 20.9024 32.6834 20.9024 32.2929 21.2929L31.2929 22.2929C30.9024 22.6834 30.9024 23.3166 31.2929 23.7071C31.6834 24.0976 32.3166 24.0976 32.7071 23.7071L33.7071 22.7071Z" fill="#3860D9"/>
<path d="M39.7071 21.2929C40.0976 21.6834 40.0976 22.3166 39.7071 22.7071L38.7071 23.7071C38.3166 24.0976 37.6834 24.0976 37.2929 23.7071C36.9024 23.3166 36.9024 22.6834 37.2929 22.2929L38.2929 21.2929C38.6834 20.9024 39.3166 20.9024 39.7071 21.2929Z" fill="#3860D9"/>
<path d="M20.2929 27.2929C20.6834 26.9024 21.3166 26.9024 21.7071 27.2929C22.0976 27.6834 22.0976 28.3166 21.7071 28.7071L20.7071 29.7071C20.3166 30.0976 19.6834 30.0976 19.2929 29.7071C18.9024 29.3166 18.9024 28.6834 19.2929 28.2929L20.2929 27.2929Z" fill="#3860D9"/>
<path d="M26.7071 29.7071L27.7071 28.7071C28.0976 28.3166 28.0976 27.6834 27.7071 27.2929C27.3166 26.9024 26.6834 26.9024 26.2929 27.2929L25.2929 28.2929C24.9024 28.6834 24.9024 29.3166 25.2929 29.7071C25.6834 30.0976 26.3166 30.0976 26.7071 29.7071Z" fill="#3860D9"/>
<path d="M31.2929 28.2929L32.2929 27.2929C32.6834 26.9024 33.3166 26.9024 33.7071 27.2929C34.0976 27.6834 34.0976 28.3166 33.7071 28.7071L32.7071 29.7071C32.3166 30.0976 31.6834 30.0976 31.2929 29.7071C30.9024 29.3166 30.9024 28.6834 31.2929 28.2929Z" fill="#3860D9"/>
<path d="M38.7071 29.7071L39.7071 28.7071C40.0976 28.3166 40.0976 27.6834 39.7071 27.2929C39.3166 26.9024 38.6834 26.9024 38.2929 27.2929L37.2929 28.2929C36.9024 28.6834 36.9024 29.3166 37.2929 29.7071C37.6834 30.0976 38.3166 30.0976 38.7071 29.7071Z" fill="#3860D9"/>
<g opacity="0.15">
<path d="M4 1C4 0.447716 3.55228 0 3 0H1C0.447715 0 0 0.447715 0 1V9C0 9.55228 0.447715 10 1 10H3C3.55228 10 4 9.55229 4 9V1Z" fill="#3860D9"/>
<path d="M29 0C29.5523 0 30 0.447716 30 1V9C30 9.55229 29.5523 10 29 10H8C7.44772 10 7 9.55228 7 9V1C7 0.447715 7.44771 0 8 0H29Z" fill="#3860D9"/>
<path d="M39 0C39.5523 0 40 0.447716 40 1V9C40 9.55229 39.5523 10 39 10H34C33.4477 10 33 9.55228 33 9V1C33 0.447715 33.4477 0 34 0H39Z" fill="#3860D9"/>
<path d="M3 27C3.55228 27 4 27.4477 4 28V39C4 39.5523 3.55228 40 3 40H1C0.447715 40 0 39.5523 0 39V28C0 27.4477 0.447715 27 1 27H3Z" fill="#3860D9"/>
<path d="M12 28C12 27.4477 11.5523 27 11 27H8C7.44772 27 7 27.4477 7 28V39C7 39.5523 7.44772 40 8 40H11C11.5523 40 12 39.5523 12 39V28Z" fill="#3860D9"/>
<path d="M13.7732 13C14.636 13 15.0938 14.0195 14.5206 14.6644L12.2526 17.2158C12.0899 17.3989 12 17.6353 12 17.8802V24C12 24.5523 11.5523 25 11 25H1C0.447715 25 0 24.5523 0 24V14C0 13.4477 0.447715 13 1 13H13.7732Z" fill="#3860D9"/>
</g>
</svg>
