<svg width="40" height="40" viewBox="0 0 40 40" fill="none" xmlns="http://www.w3.org/2000/svg">
<path d="M36 5C36.5523 5 37 4.55229 37 4C37 3.44772 36.5523 3 36 3L34 3C33.4477 3 33 3.44772 33 4C33 4.55229 33.4477 5 34 5H36Z" fill="#3860D9"/>
<path d="M32 4C32 4.55229 31.5523 5 31 5H29C28.4477 5 28 4.55229 28 4C28 3.44772 28.4477 3 29 3L31 3C31.5523 3 32 3.44772 32 4Z" fill="#3860D9"/>
<path d="M26 5C26.5523 5 27 4.55229 27 4C27 3.44772 26.5523 3 26 3L24 3C23.4477 3 23 3.44772 23 4C23 4.55229 23.4477 5 24 5H26Z" fill="#3860D9"/>
<path d="M22 4C22 4.55229 21.5523 5 21 5H19C18.4477 5 18 4.55229 18 4C18 3.44772 18.4477 3 19 3H21C21.5523 3 22 3.44772 22 4Z" fill="#3860D9"/>
<path d="M16 5C16.5523 5 17 4.55229 17 4C17 3.44772 16.5523 3 16 3H14C13.4477 3 13 3.44772 13 4C13 4.55229 13.4477 5 14 5H16Z" fill="#3860D9"/>
<path d="M12 4C12 4.55229 11.5523 5 11 5L9 5C8.44772 5 8 4.55229 8 4C8 3.44772 8.44772 3 9 3H11C11.5523 3 12 3.44772 12 4Z" fill="#3860D9"/>
<path fill-rule="evenodd" clip-rule="evenodd" d="M39.8644 38.4972L39.8632 38.4951L39.8512 38.4736C39.8396 38.4529 39.8213 38.4196 39.7972 38.3741C39.7489 38.2832 39.6774 38.1442 39.5903 37.9614C39.416 37.5956 39.1804 37.0567 38.9439 36.3805C38.4696 35.0241 38 33.1383 38 31C38 30.002 38.2499 28.7049 38.5922 27.4176C38.9301 26.1472 39.3384 24.9568 39.6157 24.1965C39.9068 23.3983 39.8605 22.5307 39.5389 21.7769C38.9764 20.4584 38 17.7584 38 15C38 11.93 39.2085 8.93877 39.7038 7.84837C39.8872 7.44458 40 6.99298 40 6.51619V3C40 1.34315 38.6569 1.47119e-06 37 1.39876e-06L5 0C3.34315 -7.24233e-08 2 1.34315 2 3V6.39445C2 6.59197 1.94067 6.81802 1.81402 7.05926C1.20226 8.22459 8.7335e-07 11.0201 6.99383e-07 15C5.5419e-07 18.3216 0.83762 20.8184 1.4696 22.2296C1.68315 22.7064 1.68314 23.2936 1.4696 23.7704C0.83762 25.1816 1.45194e-07 27.6784 0 31C-1.54513e-07 34.5348 0.948543 37.1355 1.58867 38.4883C2.06588 39.4968 3.07938 40 4.07037 40H39C39.3578 40 39.6884 39.8088 39.8668 39.4986C40.0451 39.1886 40.044 38.8064 39.8644 38.4972ZM37 2C37.5523 2 38 2.44772 38 3V6L4 6V5L6 5C6.55229 5 7 4.55229 7 4C7 3.44772 6.55229 3 6 3L4 3C4 2.44772 4.44772 2 5 2L37 2ZM4 8L37.4687 8C37.1643 8.77083 36.802 9.81002 36.5134 11H31C30.4477 11 30 11.4477 30 12C30 12.5523 30.4477 13 31 13H36.1364C36.0508 13.6498 36 14.3212 36 15C36 17.7891 36.8563 20.449 37.4688 22L3.5016 22C3.44894 21.799 3.38004 21.6022 3.29491 21.4122C2.75186 20.1996 2 17.9821 2 15C2 14.2888 2.04278 13.621 2.11529 13H26C26.5523 13 27 12.5523 27 12C27 11.4477 26.5523 11 26 11H2.47534C2.82941 9.56192 3.29916 8.53309 3.58484 7.98888L3.60045 7.95885L3.61796 7.92442C3.73567 7.97312 3.86469 8 4 8ZM3.50159 24C3.44893 24.201 3.38004 24.3978 3.29491 24.5878C3.03442 25.1695 2.72587 25.9824 2.47532 27L26 27C26.5523 27 27 27.4477 27 28C27 28.5523 26.5523 29 26 29L2.11528 29C2.04277 29.621 2 30.2887 2 31C2 34.1736 2.85157 36.4812 3.39649 37.6328C3.49131 37.8332 3.72394 38 4.07037 38H37.4209C37.3035 37.7153 37.1797 37.3942 37.0561 37.0407C36.5304 35.5375 36 33.4233 36 31C36 30.3747 36.0746 29.6918 36.193 29H31C30.4477 29 30 28.5523 30 28C30 27.4477 30.4477 27 31 27H36.634L36.6594 26.9036C36.9513 25.8062 37.2901 24.7733 37.5618 24L3.50159 24Z" fill="#3860D9"/>
<g opacity="0.15">
<path d="M7.00005 23C5.15422 20.785 4.94379 17.4799 4.96005 15.9017C4.96534 15.388 5.39128 15 5.90503 15H37.0001C36.5 18.5 39.0001 23 39.0001 23H7.00005Z" fill="#3860D9"/>
<path d="M7.00005 39C5.15422 36.785 4.94379 33.4799 4.96005 31.9017C4.96534 31.388 5.39128 31 5.90503 31H37.0001C36.5 34.5 39.0001 39 39.0001 39H7.00005Z" fill="#3860D9"/>
</g>
</svg>
