<svg width="40" height="40" viewBox="0 0 40 40" fill="none" xmlns="http://www.w3.org/2000/svg">
<g clip-path="url(#clip0)">
<path d="M30.2248 19.0256C30.763 19.1498 31.0986 19.6867 30.9744 20.2249L27.9744 33.2249C27.8502 33.763 27.3133 34.0986 26.7751 33.9744C26.237 33.8502 25.9014 33.3133 26.0256 32.7751L29.0256 19.7751C29.1498 19.237 29.6867 18.9014 30.2248 19.0256Z" fill="#3860D9"/>
<path d="M25.9751 22.2216C26.0975 21.6831 25.7602 21.1473 25.2216 21.0249C24.6831 20.9025 24.1472 21.2398 24.0249 21.7784L21.5249 32.7784C21.4025 33.3169 21.7398 33.8527 22.2784 33.9751C22.8169 34.0975 23.3527 33.7602 23.4751 33.2216L25.9751 22.2216Z" fill="#3860D9"/>
<path d="M20.2169 23.0238C20.756 23.1436 21.096 23.6778 20.9762 24.2169L18.9762 33.2169C18.8564 33.7561 18.3222 34.096 17.7831 33.9762C17.2439 33.8564 16.904 33.3222 17.0238 32.7831L19.0238 23.7831C19.1436 23.2439 19.6778 22.904 20.2169 23.0238Z" fill="#3860D9"/>
<path d="M34 8C35.1046 8 36 7.10457 36 6C36 4.89543 35.1046 4 34 4C32.8954 4 32 4.89543 32 6C32 7.10457 32.8954 8 34 8Z" fill="#3860D9"/>
<path fill-rule="evenodd" clip-rule="evenodd" d="M13.6554 16.0577L19.6241 13.3029L21.2604 5.47627C21.9274 2.28568 24.7404 1.43051e-06 28 0H34C34.0213 0 34.0425 0.000669003 34.0635 0.00198719C34.6574 -0.00539392 35.2637 0.0782793 35.8647 0.263416C38.7041 1.13812 40.4397 3.99939 39.9034 6.92175L34.5851 35.9025C34.1495 38.2762 32.0805 40 29.6672 40H26.0055L25.9999 40H10.1535C7.8416 40 5.83114 38.415 5.2916 36.1669L0.0327295 14.2548C0.0210643 14.2104 0.0123761 14.1647 0.00689153 14.1182C-0.00703504 14.0023 -0.000282789 13.8877 0.0245788 13.7786C0.058438 13.6288 0.125923 13.4917 0.21868 13.3758C0.306589 13.2656 0.418126 13.1734 0.548017 13.1077C0.652126 13.0549 0.766724 13.0197 0.887859 13.0062C0.932686 13.0011 0.977314 12.9991 1.0215 13H8.99998C9.03692 13 9.0734 13.002 9.1093 13.0059C9.48671 13.0244 9.8714 13.1551 10.2227 13.4246L13.6554 16.0577ZM23.2181 5.88556C23.6914 3.62175 25.6872 2 28 2H29.7312C29.0847 2.73579 28.6131 3.6459 28.3998 4.68094L26.6185 13.3227L16.6122 18.3258L15.4482 17.433L20.4622 15.1188C21.037 14.8536 21.4522 14.3318 21.5817 13.7122L23.2181 5.88556ZM3.46837 20L2.26838 15H7.0012C7.00218 15.1613 7.02283 15.3281 7.06569 15.4987L8.19635 20H3.46837ZM3.94836 22L7.23638 35.7002C7.5601 37.049 8.76638 38 10.1535 38H13.119C12.729 37.4803 12.436 36.8785 12.2701 36.2181L8.69872 22H3.94836ZM10.4991 20.958L14.2098 35.7309C14.5449 37.0648 15.7441 38 17.1195 38H29.6672C31.1152 38 32.3566 36.9657 32.6179 35.5415L37.9363 6.56075C38.2895 4.63574 37.1463 2.75097 35.2759 2.17478C33.0993 1.50429 30.8184 2.85408 30.3586 5.08469L28.5774 13.7264C28.4536 14.3269 28.0613 14.8374 27.513 15.1115L17.5067 20.1147C16.8221 20.457 16.0022 20.3786 15.395 19.9127L9.00544 15.0115L10.4001 20.5639C10.4583 20.6838 10.4933 20.8171 10.4991 20.958Z" fill="#3860D9"/>
<g opacity="0.15">
<path d="M32 1L30 3L29.5 5.5L27.5 14L16.5 19.5L13.5 18L20.5 13.5L22.6824 5.20688C22.8892 4.42098 23.3305 3.71671 23.9475 3.18783L25.0957 2.20372C26.0019 1.42696 27.1561 1 28.3496 1H32Z" fill="#3860D9"/>
<path d="M37 17.5L39 5.5L38.5 3L36.5 1.5L35 1L30.7135 20.8738L21.2916 25.181C20.162 25.6974 19.3363 26.7092 19.057 27.9195L16.5 39H29.5L32.5 38L34 35.5L37 18L36.8763 18.0565L37 17.5Z" fill="#3860D9"/>
<path d="M8 14.5L9.5 20.5H5.5L4 14L8 14.5Z" fill="#3860D9"/>
</g>
</g>
<defs>
<clipPath id="clip0">
<rect width="40" height="40" fill="white"/>
</clipPath>
</defs>
</svg>
