<svg width="40" height="40" viewBox="0 0 40 40" fill="none" xmlns="http://www.w3.org/2000/svg">
<g clip-path="url(#clip0)">
<path fill-rule="evenodd" clip-rule="evenodd" d="M9 3.00003C9 1.34318 10.3431 3.05176e-05 12 3.05176e-05H28C29.6569 3.05176e-05 31 1.34318 31 3.00003V4.00003H36C37.6569 4.00003 39 5.34318 39 7.00003V10C39 11.1046 38.1046 12 37 12H36C34.3431 12 33 10.6569 33 9.00003V6.00003H31V12H29V3.00003C29 2.44775 28.5523 2.00003 28 2.00003H21V9.00003C21 9.55232 20.5523 10 20 10C19.4477 10 19 9.55232 19 9.00003V2.00003H12C11.4477 2.00003 11 2.44775 11 3.00003V12H9V6.00003H7V9.00003C7 10.6569 5.65685 12 4 12H3C1.89543 12 1 11.1046 1 10V7.00003C1 5.34318 2.34315 4.00003 4 4.00003H9V3.00003ZM35 6.00003V9.00003C35 9.55231 35.4477 10 36 10H37V7.00003C37 6.44775 36.5523 6.00003 36 6.00003H35ZM5 6.00003H4C3.44772 6.00003 3 6.44775 3 7.00003V10H4C4.55228 10 5 9.55231 5 9.00003V6.00003Z" fill="#3860D9"/>
<path fill-rule="evenodd" clip-rule="evenodd" d="M25 18.5C25 16.567 26.567 15 28.5 15C30.433 15 32 16.567 32 18.5C32 20.433 30.433 22 28.5 22C26.567 22 25 20.433 25 18.5ZM28.5 17C27.6716 17 27 17.6716 27 18.5C27 19.3285 27.6716 20 28.5 20C29.3284 20 30 19.3285 30 18.5C30 17.6716 29.3284 17 28.5 17Z" fill="#3860D9"/>
<path fill-rule="evenodd" clip-rule="evenodd" d="M11.5 15C9.567 15 8 16.567 8 18.5C8 20.433 9.567 22 11.5 22C13.433 22 15 20.433 15 18.5C15 16.567 13.433 15 11.5 15ZM10 18.5C10 17.6716 10.6716 17 11.5 17C12.3284 17 13 17.6716 13 18.5C13 19.3285 12.3284 20 11.5 20C10.6716 20 10 19.3285 10 18.5Z" fill="#3860D9"/>
<path d="M18 16C18.5523 16 19 16.4477 19 17V20C19 20.5523 18.5523 21 18 21C17.4477 21 17 20.5523 17 20V17C17 16.4477 17.4477 16 18 16Z" fill="#3860D9"/>
<path d="M23 17C23 16.4477 22.5523 16 22 16C21.4477 16 21 16.4477 21 17V20C21 20.5523 21.4477 21 22 21C22.5523 21 23 20.5523 23 20V17Z" fill="#3860D9"/>
<path d="M5 27C4.44772 27 4 27.4477 4 28C4 28.5523 4.44772 29 5 29H35C35.5523 29 36 28.5523 36 28C36 27.4477 35.5523 27 35 27H5Z" fill="#3860D9"/>
<path fill-rule="evenodd" clip-rule="evenodd" d="M5 17V23H4C1.79086 23 0 24.7909 0 27V39C0 39.5523 0.447715 40 1 40C1.55228 40 2 39.5523 2 39H9C9 39.5523 9.44771 40 10 40C10.5523 40 11 39.5523 11 39H19C19 39.5523 19.4477 40 20 40C20.5523 40 21 39.5523 21 39H29C29 39.5523 29.4477 40 30 40C30.5523 40 31 39.5523 31 39H38C38 39.5523 38.4477 40 39 40C39.5523 40 40 39.5523 40 39V27C40 24.7909 38.2091 23 36 23H35V17C35 14.2386 32.7614 12 30 12H10C7.23858 12 5 14.2386 5 17ZM10 14C8.34315 14 7 15.3432 7 17V23H33V17C33 15.3432 31.6569 14 30 14H10ZM38 37V27C38 25.8955 37.1046 25 36 25H4C2.89543 25 2 25.8955 2 27V37H38Z" fill="#3860D9"/>
<g opacity="0.15">
<path d="M13 4.00003H29V13H13V4.00003Z" fill="#3860D9"/>
<path d="M4 28H39V38H4V28Z" fill="#3860D9"/>
<path d="M14 18.5C14 17.1193 12.8807 16 11.5 16C10.1193 16 9 17.1193 9 18.5C9 19.8807 10.1193 21 11.5 21C12.8807 21 14 19.8807 14 18.5Z" fill="#3860D9"/>
<path d="M28.5 16C29.8807 16 31 17.1193 31 18.5C31 19.8807 29.8807 21 28.5 21C27.1193 21 26 19.8807 26 18.5C26 17.1193 27.1193 16 28.5 16Z" fill="#3860D9"/>
</g>
</g>
<defs>
<clipPath id="clip0">
<rect width="40" height="40" fill="white"/>
</clipPath>
</defs>
</svg>
