<svg width="40" height="40" viewBox="0 0 40 40" fill="none" xmlns="http://www.w3.org/2000/svg">
<path fill-rule="evenodd" clip-rule="evenodd" d="M39.4243 3.58585C31.8223 -1.16363 22.1777 -1.16363 14.5757 3.58585C14.2176 3.80959 14 4.20206 14 4.62432V5.99988C14 7.10445 14.8954 7.99988 16 7.99988H18.3859C18.3992 8.03169 18.4137 8.06337 18.4294 8.09487C20.4867 12.2094 21.8822 16.6226 22.5646 21.1718L23 24.0746V39C23 39.5523 23.4477 40 24 40C24.5523 40 25 39.5523 25 39V24.0473C25 23.9661 24.994 23.8851 24.9819 23.8048L24.5425 20.8751C23.8729 16.4113 22.5467 12.0728 20.6084 7.99997H33.3916C31.4533 12.0728 30.1271 16.4113 29.4575 20.8751L29.0181 23.8048C29.0084 23.8695 29.0026 23.9347 29.0007 24H27C26.4477 24 26 24.4477 26 25C26 25.5523 26.4477 26 27 26H29V39C29 39.5523 29.4477 40 30 40C30.5523 40 31 39.5523 31 39V24.0746L31.4354 21.1718C32.1178 16.6226 33.5133 12.2094 35.5706 8.09487C35.5863 8.06337 35.6008 8.03169 35.6141 7.99988H38C39.1046 7.99988 40 7.10445 40 5.99988V4.62432C40 4.20206 39.7824 3.80959 39.4243 3.58585ZM16 5.99988V5.05923C22.7733 1.01191 31.2267 1.01192 38 5.05923V5.99988H16Z" fill="#3860D9"/>
<path d="M10 16C7.79086 16 6 17.7909 6 20C6 20.5523 5.55228 21 5 21C4.44772 21 4 20.5523 4 20C4 16.6863 6.68629 14 10 14C10.5523 14 11 14.4477 11 15C11 15.5523 10.5523 16 10 16Z" fill="#3860D9"/>
<path fill-rule="evenodd" clip-rule="evenodd" d="M0 20C0 23.7216 2.03294 26.9683 5.04889 28.6903C5.01715 28.7878 5 28.8919 5 29V30C5 31.3062 5.83481 32.4175 7 32.8293V39C7 39.5523 7.44772 40 8 40C8.55228 40 9 39.5523 9 39V33H11V39C11 39.5523 11.4477 40 12 40C12.5523 40 13 39.5523 13 39V32.8293C14.1652 32.4175 15 31.3062 15 30V29C15 28.8919 14.9828 28.7878 14.9511 28.6903C17.9671 26.9683 20 23.7216 20 20C20 14.4772 15.5228 10 10 10C4.47715 10 0 14.4772 0 20ZM13 30V29.5422C12.053 29.8396 11.0452 30 10 30C8.95479 30 7.94704 29.8396 7 29.5422V30C7 30.5523 7.44772 31 8 31H12C12.5523 31 13 30.5523 13 30ZM2 20C2 15.5817 5.58172 12 10 12C14.4183 12 18 15.5817 18 20C18 24.4183 14.4183 28 10 28C5.58172 28 2 24.4183 2 20Z" fill="#3860D9"/>
<path d="M25.0743 9.61283L25.0718 9.6072L25.0705 9.60409C24.8847 9.17919 24.4392 8.9483 24.0016 9.01618C23.918 9.02914 23.8347 9.05299 23.7536 9.08846C23.5593 9.17341 23.4056 9.31266 23.3025 9.48065C23.1863 9.66998 23.1343 9.8958 23.1609 10.1215C23.1694 10.1938 23.186 10.2661 23.2111 10.3373L23.3555 10.6917C23.4351 10.8915 23.5517 11.1946 23.6958 11.5979C23.9842 12.4046 24.3825 13.6118 24.8142 15.1949C25.246 16.7782 25.5165 18.0212 25.6783 18.8631C25.7593 19.2841 25.813 19.6047 25.8463 19.8175C25.8621 19.9192 25.8775 20.021 25.8907 20.1231C25.9587 20.6643 26.4615 21.0621 27.0049 20.9956C27.5531 20.9285 27.9431 20.4295 27.876 19.8813C27.8605 19.7568 27.8417 19.6328 27.8223 19.509C27.7856 19.2738 27.7278 18.9301 27.6424 18.4855C27.4714 17.5964 27.1897 16.3038 26.7438 14.6687C26.2978 13.0334 25.8838 11.7771 25.5791 10.9248C25.4268 10.4986 25.3018 10.1734 25.2138 9.95225C25.1698 9.84168 25.1351 9.75712 25.1108 9.69896C25.0986 9.66988 25.0891 9.64741 25.0823 9.63158L25.0743 9.61283Z" fill="#3860D9"/>
<g opacity="0.15">
<path d="M21.5 6L22 7H25C25 7 29.4444 8.33333 28.8047 11C28.0874 13.9902 27.2643 18.6569 27 25L26.0711 38.9335C26.0326 39.5107 26.4904 40 27.0689 40H30V25C31 16 33 11.5 35 7H39V4.5C38.8731 4.42385 38.7152 4.32451 38.5318 4.20903C37.5106 3.5663 35.6954 2.42385 34 2C32.6008 1.65021 28.8333 1 26.5 1C26.5 1 30.1767 2.23495 29 4C28 5.5 23.5 6.16667 21.5 6Z" fill="#3860D9"/>
<path d="M8 32H12V40H8V32Z" fill="#3860D9"/>
<path d="M15.0001 15C15.0001 19.9705 10.9706 24 6.00005 24C4.33153 24 2.76906 23.5459 1.42944 22.7547C2.59303 26.3778 5.99032 29 10.0001 29C14.9706 29 19.0001 24.9705 19.0001 20C19.0001 16.6979 17.2218 13.8112 14.5707 12.2453C14.8495 13.1135 15.0001 14.0392 15.0001 15Z" fill="#3860D9"/>
</g>
</svg>
