<svg width="40" height="40" viewBox="0 0 40 40" fill="none" xmlns="http://www.w3.org/2000/svg">
<path fill-rule="evenodd" clip-rule="evenodd" d="M8.57346 4.70142L4 1.5V38C4 38.5523 4.44772 39 5 39H13C13.5523 39 14 38.5523 14 38V24.8028C14 24.6054 14.0584 24.4123 14.1679 24.2481L14.8321 23.2519C14.9416 23.0877 15 22.8946 15 22.6972V19H34V10H15H10C9.44772 10 9 9.55229 9 9V5.52066C9 5.19434 8.84079 4.88855 8.57346 4.70142Z" fill="#3761E9" fill-opacity="0.15"/>
<path d="M15 22H38V25C38 25.5523 37.5523 26 37 26H16C15.4477 26 15 25.5523 15 25V22Z" fill="#3761E9" fill-opacity="0.15"/>
<path fill-rule="evenodd" clip-rule="evenodd" d="M0 2C0 0.895431 0.89543 0 2 0H4H32.638C33.1058 0 33.5589 0.164032 33.9183 0.463557L39.6402 5.23178C39.8682 5.42177 40 5.70322 40 6V9C40 10.1046 39.1046 11 38 11H35V18H36C37.6569 18 39 19.3431 39 21V24C39 25.6569 37.6569 27 36 27H35V38C35 39.1046 34.1046 40 33 40H4C3.89252 40 3.78574 39.9827 3.68377 39.9487L1.36754 39.1766C0.55086 38.9044 0 38.1401 0 37.2792V2ZM33 27H22V29H27H29C30.1046 29 31 29.8954 31 31V35C31 36.1046 30.1046 37 29 37H28C26.8954 37 26 36.1046 26 35V31H22C20.8954 31 20 30.1046 20 29V27H17C15.3431 27 14 25.6569 14 24V21C14 19.3431 15.3431 18 17 18H18V15C18 14.4477 18.4477 14 19 14C19.5523 14 20 14.4477 20 15V18H23V13C23 12.4477 23.4477 12 24 12C24.5523 12 25 12.4477 25 13V18H28V14C28 13.4477 28.4477 13 29 13C29.5523 13 30 13.4477 30 14V18H33V11H10C8.89543 11 8 10.1046 8 9V6.41421L5 3.41421V38H33V27ZM35 20H33H17C16.4477 20 16 20.4477 16 21V24C16 24.5523 16.4477 25 17 25H36C36.5523 25 37 24.5523 37 24V21C37 20.4477 36.5523 20 36 20H35ZM34 9H38V7H34H10V9H34ZM9.41421 5H34H36.238L32.638 2H6.41421L9.41421 5ZM3 2H2V37.2792L3 37.6126V2ZM29 31H28V35H29V31ZM14 12C14.5523 12 15 12.4477 15 13V16C15 16.5523 14.5523 17 14 17C13.4477 17 13 16.5523 13 16V13C13 12.4477 13.4477 12 14 12ZM15 29C15 28.4477 14.5523 28 14 28C13.4477 28 13 28.4477 13 29V33C13 33.5523 13.4477 34 14 34C14.5523 34 15 33.5523 15 33V29ZM10 15C10 14.4477 9.55229 14 9 14C8.44771 14 8 14.4477 8 15V21C8 21.5523 8.44771 22 9 22C9.55229 22 10 21.5523 10 21V15ZM9 25C9.55229 25 10 25.4477 10 26V35C10 35.5523 9.55229 36 9 36C8.44771 36 8 35.5523 8 35V26C8 25.4477 8.44771 25 9 25Z" fill="#3761E9"/>
</svg>
