<svg width="40" height="40" viewBox="0 0 40 40" fill="none" xmlns="http://www.w3.org/2000/svg">
<path fill-rule="evenodd" clip-rule="evenodd" d="M39 7H11V11C11 12.1046 11.8954 13 13 13H37C38.1046 13 39 12.1046 39 11V7ZM11 23H33V28C33 29.1046 32.1046 30 31 30H13C11.8954 30 11 29.1046 11 28V23Z" fill="#3761E9" fill-opacity="0.15"/>
<path fill-rule="evenodd" clip-rule="evenodd" d="M10 4C9.44772 4 9 4.44772 9 5V8C9 8.55228 9.44772 9 10 9V4ZM10 2C8.69378 2 7.58254 2.83481 7.17071 4H5C2.23858 4 0 6.23858 0 9V38C0 39.1046 0.89543 40 2 40H3C4.10457 40 5 39.1046 5 38V9H7.17071C7.58254 10.1652 8.69378 11 10 11C10 12.6569 11.3431 14 13 14H37C38.6569 14 40 12.6569 40 11V3C40 1.34315 38.6569 0 37 0H13C11.6938 0 10.5825 0.834808 10.1707 2H10ZM5 6H7V7H5C3.89543 7 3 7.89543 3 9V38H2V9C2 7.34315 3.34315 6 5 6ZM12 3V10V11C12 11.5523 12.4477 12 13 12H37C37.5523 12 38 11.5523 38 11V3C38 2.44772 37.5523 2 37 2H13C12.4477 2 12 2.44772 12 3ZM16 6C16.5523 6 17 5.55228 17 5C17 4.44772 16.5523 4 16 4C15.4477 4 15 4.44772 15 5C15 5.55228 15.4477 6 16 6ZM28 6C28.5523 6 29 5.55228 29 5C29 4.44772 28.5523 4 28 4C27.4477 4 27 4.44772 27 5C27 5.55228 27.4477 6 28 6ZM20 7C20 7.55228 19.5523 8 19 8C18.4477 8 18 7.55228 18 7C18 6.44772 18.4477 6 19 6C19.5523 6 20 6.44772 20 7ZM31 8C31.5523 8 32 7.55228 32 7C32 6.44772 31.5523 6 31 6C30.4477 6 30 6.44772 30 7C30 7.55228 30.4477 8 31 8ZM23 5C23 5.55228 22.5523 6 22 6C21.4477 6 21 5.55228 21 5C21 4.44772 21.4477 4 22 4C22.5523 4 23 4.44772 23 5ZM34 6C34.5523 6 35 5.55228 35 5C35 4.44772 34.5523 4 34 4C33.4477 4 33 4.44772 33 5C33 5.55228 33.4477 6 34 6ZM17 9C17 9.55228 16.5523 10 16 10C15.4477 10 15 9.55228 15 9C15 8.44772 15.4477 8 16 8C16.5523 8 17 8.44772 17 9ZM28 10C28.5523 10 29 9.55228 29 9C29 8.44772 28.5523 8 28 8C27.4477 8 27 8.44772 27 9C27 9.55228 27.4477 10 28 10ZM23 9C23 9.55228 22.5523 10 22 10C21.4477 10 21 9.55228 21 9C21 8.44772 21.4477 8 22 8C22.5523 8 23 8.44772 23 9ZM34 10C34.5523 10 35 9.55228 35 9C35 8.44772 34.5523 8 34 8C33.4477 8 33 8.44772 33 9C33 9.55228 33.4477 10 34 10ZM26 7C26 7.55228 25.5523 8 25 8C24.4477 8 24 7.55228 24 7C24 6.44772 24.4477 6 25 6C25.5523 6 26 6.44772 26 7ZM8 20C8 18.3431 9.34315 17 11 17H39C39.3214 17 39.6233 17.1545 39.8112 17.4153C39.9992 17.6761 40.0503 18.0113 39.9487 18.3162L39.1766 20.6325C38.9044 21.4491 38.1401 22 37.2792 22H37V27C37 28.6569 35.6569 30 34 30H33.7324C33.3866 30.5978 32.7403 31 32 31H26H18V38C18 39.1046 17.1046 40 16 40H15C13.8954 40 13 39.1046 13 38V31C11.3431 31 10 29.6569 10 28V26V24C8.89543 24 8 23.1046 8 22V20ZM15 31V38H16V31H15ZM12 24V25H26C26.5523 25 27 25.4477 27 26C27 26.5523 26.5523 27 26 27H12V28C12 28.5523 12.4477 29 13 29H26H32V24H25H12ZM32.0434 22C32.1229 21.6241 32.3099 21.2759 32.5858 21L32.7071 20.8787C33.2697 20.3161 34.0328 20 34.8284 20H36H37.2792L37.6126 19H11C10.4477 19 10 19.4477 10 20V22H11H25H32.0434ZM34 28C34.5523 28 35 27.5523 35 27V22H34.8284C34.5632 22 34.3089 22.1054 34.1213 22.2929L34 22.4142V23V28Z" fill="#3761E9"/>
</svg>
