<svg width="40" height="40" viewBox="0 0 40 40" fill="none" xmlns="http://www.w3.org/2000/svg">
<path fill-rule="evenodd" clip-rule="evenodd" d="M1 3C1 1.89543 1.89543 1 3 1H14C15.1046 1 16 1.89543 16 3V13C16 14.1046 15.1046 15 14 15H3C1.89543 15 1 14.1046 1 13V3ZM6 5L11.5 8L6 11V5ZM23 29C21.8954 29 21 29.8954 21 31V37C21 38.1046 21.8954 39 23 39H37C38.1046 39 39 38.1046 39 37V31C39 29.8954 38.1046 29 37 29H23Z" fill="#3761E9" fill-opacity="0.15"/>
<path fill-rule="evenodd" clip-rule="evenodd" d="M0 3C0 1.34315 1.34315 0 3 0H14C15.6569 0 17 1.34315 17 3V13C17 14.6569 15.6569 16 14 16H3C1.34315 16 0 14.6569 0 13V3ZM3 2C2.44772 2 2 2.44772 2 3V13C2 13.5523 2.44772 14 3 14H14C14.5523 14 15 13.5523 15 13V3C15 2.44772 14.5523 2 14 2H3ZM28 6.5C28 5.67157 28.6716 5 29.5 5C30.3284 5 31 5.67157 31 6.5C31 7.32843 30.3284 8 29.5 8C28.6716 8 28 7.32843 28 6.5ZM29.5 3C27.567 3 26 4.567 26 6.5C26 7.48537 26.4072 8.37564 27.0625 9.01171C25.6149 9.64302 24.4883 10.8255 24.0568 12.3156C23.9032 12.8461 24.2088 13.4007 24.7393 13.5543C25.2697 13.7079 25.8243 13.4023 25.9779 12.8719C26.3522 11.5794 27.7292 10.5081 29.5 10.5081C31.2708 10.5081 32.6478 11.5794 33.022 12.8719C33.1756 13.4023 33.7302 13.7079 34.2607 13.5543C34.7912 13.4007 35.0967 12.8461 34.9431 12.3156C34.5117 10.8255 33.3851 9.64304 31.9375 9.01172C32.5928 8.37565 33 7.48538 33 6.5C33 4.567 31.433 3 29.5 3ZM6.47885 4.1221C6.16901 3.9531 5.79303 3.95994 5.48954 4.1401C5.18605 4.32026 5 4.64706 5 5V11C5 11.3529 5.18605 11.6797 5.48954 11.8599C5.79303 12.0401 6.16901 12.0469 6.47885 11.8779L11.9789 8.8779C12.3001 8.70266 12.5 8.36594 12.5 8C12.5 7.63406 12.3001 7.29734 11.9789 7.1221L6.47885 4.1221ZM9.41167 8L7 9.31546V6.68454L9.41167 8ZM9 19C9.55228 19 10 18.5523 10 18C10 17.4477 9.55228 17 9 17C8.44771 17 8 17.4477 8 18C8 18.5523 8.44771 19 9 19ZM31 23C31 23.5523 30.5523 24 30 24C29.4477 24 29 23.5523 29 23C29 22.4477 29.4477 22 30 22C30.5523 22 31 22.4477 31 23ZM9 22C9.55228 22 10 21.5523 10 21C10 20.4477 9.55228 20 9 20C8.44771 20 8 20.4477 8 21C8 21.5523 8.44771 22 9 22ZM31 26C31 26.5523 30.5523 27 30 27C29.4477 27 29 26.5523 29 26C29 25.4477 29.4477 25 30 25C30.5523 25 31 25.4477 31 26ZM3 23C1.34315 23 0 24.3431 0 26V37C0 38.6569 1.34315 40 3 40H14C15.6569 40 17 38.6569 17 37V36H20V37C20 38.6569 21.3431 40 23 40H37C38.6569 40 40 38.6569 40 37V31C40 29.3431 38.6569 28 37 28H23C21.3431 28 20 29.3431 20 31V34H17V26C17 24.3431 15.6569 23 14 23H3ZM2 26C2 25.4477 2.44772 25 3 25H14C14.5523 25 15 25.4477 15 26V35V37C15 37.5523 14.5523 38 14 38H3C2.44772 38 2 37.5523 2 37V26ZM23 30C22.4477 30 22 30.4477 22 31V37C22 37.5523 22.4477 38 23 38H37C37.5523 38 38 37.5523 38 37V31C38 30.4477 37.5523 30 37 30H23ZM27.2929 31.2929L25.2929 33.2929C24.9024 33.6834 24.9024 34.3166 25.2929 34.7071L27.2929 36.7071C27.6834 37.0976 28.3166 37.0976 28.7071 36.7071C29.0976 36.3166 29.0976 35.6834 28.7071 35.2929L27.4142 34L28.7071 32.7071C29.0976 32.3166 29.0976 31.6834 28.7071 31.2929C28.3166 30.9024 27.6834 30.9024 27.2929 31.2929ZM31.2929 32.7071L32.5858 34L31.2929 35.2929C30.9024 35.6834 30.9024 36.3166 31.2929 36.7071C31.6834 37.0976 32.3166 37.0976 32.7071 36.7071L34.7071 34.7071C35.0976 34.3166 35.0976 33.6834 34.7071 33.2929L32.7071 31.2929C32.3166 30.9024 31.6834 30.9024 31.2929 31.2929C30.9024 31.6834 30.9024 32.3166 31.2929 32.7071ZM21 0C19.8954 0 19 0.89543 19 2V16V19C19 20.1046 19.8954 21 21 21H38C39.1046 21 40 20.1046 40 19V16V2C40 0.895431 39.1046 0 38 0H21ZM21 2H38V15H21V2ZM21 17H38V19H21V17ZM4 28C4 27.4477 4.44772 27 5 27H9C9.55228 27 10 27.4477 10 28C10 28.5523 9.55228 29 9 29H5C4.44772 29 4 28.5523 4 28ZM5 34C4.44772 34 4 34.4477 4 35C4 35.5523 4.44772 36 5 36H9C9.55228 36 10 35.5523 10 35C10 34.4477 9.55228 34 9 34H5ZM4 31C4 30.4477 4.44772 30 5 30H12C12.5523 30 13 30.4477 13 31C13 31.5523 12.5523 32 12 32H5C4.44772 32 4 31.5523 4 31Z" fill="#3761E9"/>
</svg>
