<svg width="40" height="40" viewBox="0 0 40 40" fill="none" xmlns="http://www.w3.org/2000/svg">
<rect x="1" y="18.9781" width="38" height="4" fill="#3761E9" fill-opacity="0.15"/>
<path fill-rule="evenodd" clip-rule="evenodd" d="M20.412 0.0429004C20.1403 -0.0143003 19.8597 -0.0142999 19.588 0.0429005L1.58798 3.83237C0.66249 4.02721 0 4.8437 0 5.78947V7.97808V14.9781V22.9781V35.9781V37.9781C0 39.0826 0.895431 39.9781 2 39.9781H6C7.10457 39.9781 8 39.0826 8 37.9781V36.9781C8 35.8735 7.10457 34.9781 6 34.9781H5V23.9781H20H35V34.9781H34C32.8954 34.9781 32 35.8735 32 36.9781V37.9781C32 39.0826 32.8954 39.9781 34 39.9781H38C39.1046 39.9781 40 39.0826 40 37.9781V35.9781V22.9781V14.9781V7.97808V5.78947C40 4.8437 39.3375 4.02721 38.412 3.83237L20.412 0.0429004ZM3 23.9781V34.9781H2V23.9781H3ZM2 37.9781V36.9781H4H6V37.9781H2ZM4 21.9781H2V15.9781H8H20H32H38V21.9781H36H20H4ZM7 13.9781H2V8.78947L7 7.73684V13.9781ZM7.79399 5.52585L2 6.74563L2 5.78947L20 2L38 5.78947V6.74563L32.206 5.52585L20.206 2.99953L20 2.95616L19.794 2.99953L7.79399 5.52585ZM33 7.73684L38 8.78947V13.9781H33V7.73684ZM31 8.43472V13.9781H23.1498L31 8.43472ZM29.5497 7.01046L21 13.0478V5.21053L29.5497 7.01046ZM19 13.0478V5.21053L10.4503 7.01046L19 13.0478ZM16.8502 13.9781L9 8.43472V13.9781H16.8502ZM37 23.9781H38V34.9781H37V23.9781ZM34 37.9781V36.9781H36H38V37.9781H34ZM5 19.9781C5.55228 19.9781 6 19.5304 6 18.9781C6 18.4258 5.55228 17.9781 5 17.9781C4.44772 17.9781 4 18.4258 4 18.9781C4 19.5304 4.44772 19.9781 5 19.9781ZM11 18.9781C11 19.5304 10.5523 19.9781 10 19.9781C9.44771 19.9781 9 19.5304 9 18.9781C9 18.4258 9.44771 17.9781 10 17.9781C10.5523 17.9781 11 18.4258 11 18.9781ZM15 19.9781C15.5523 19.9781 16 19.5304 16 18.9781C16 18.4258 15.5523 17.9781 15 17.9781C14.4477 17.9781 14 18.4258 14 18.9781C14 19.5304 14.4477 19.9781 15 19.9781ZM21 18.9781C21 19.5304 20.5523 19.9781 20 19.9781C19.4477 19.9781 19 19.5304 19 18.9781C19 18.4258 19.4477 17.9781 20 17.9781C20.5523 17.9781 21 18.4258 21 18.9781ZM25 19.9781C25.5523 19.9781 26 19.5304 26 18.9781C26 18.4258 25.5523 17.9781 25 17.9781C24.4477 17.9781 24 18.4258 24 18.9781C24 19.5304 24.4477 19.9781 25 19.9781ZM31 18.9781C31 19.5304 30.5523 19.9781 30 19.9781C29.4477 19.9781 29 19.5304 29 18.9781C29 18.4258 29.4477 17.9781 30 17.9781C30.5523 17.9781 31 18.4258 31 18.9781ZM35 19.9781C35.5523 19.9781 36 19.5304 36 18.9781C36 18.4258 35.5523 17.9781 35 17.9781C34.4477 17.9781 34 18.4258 34 18.9781C34 19.5304 34.4477 19.9781 35 19.9781Z" fill="#3761E9"/>
</svg>
