<svg width="40" height="40" viewBox="0 0 40 40" fill="none" xmlns="http://www.w3.org/2000/svg">
<g clip-path="url(#clip0)">
<path d="M4 0C1.79086 0 0 1.79086 0 4V36C0 38.2091 1.79086 40 4 40H32C34.2091 40 36 38.2091 36 36V30C36 29.4477 35.5523 29 35 29C34.4477 29 34 29.4477 34 30V36C34 37.1046 33.1046 38 32 38H4C2.89543 38 2 37.1046 2 36V4C2 2.89543 2.89543 2 4 2H32C33.1046 2 34 2.89543 34 4V8C34 8.55228 34.4477 9 35 9C35.5523 9 36 8.55228 36 8V4C36 1.79086 34.2091 0 32 0H4Z" fill="#3860D9"/>
<path d="M10 14C10 13.4477 10.4477 13 11 13H18C18.5523 13 19 13.4477 19 14C19 14.5523 18.5523 15 18 15H11C10.4477 15 10 14.5523 10 14Z" fill="#3860D9"/>
<path fill-rule="evenodd" clip-rule="evenodd" d="M8 6C6.89543 6 6 6.89543 6 8V17C6 18.1046 6.89543 19 8 19H21C22.1046 19 23 18.1046 23 17V8C23 6.89543 22.1046 6 21 6H8ZM8 8L21 8V17H8V8Z" fill="#3860D9"/>
<path d="M11 28C10.4477 28 10 28.4477 10 29C10 29.5523 10.4477 30 11 30H18C18.5523 30 19 29.5523 19 29C19 28.4477 18.5523 28 18 28H11Z" fill="#3860D9"/>
<path fill-rule="evenodd" clip-rule="evenodd" d="M23 23C23 21.8954 22.1046 21 21 21H8C6.89543 21 6 21.8954 6 23V32C6 33.1046 6.89543 34 8 34H21C22.1046 34 23 33.1046 23 32V23ZM8 23H21V32H8V23Z" fill="#3860D9"/>
<path d="M32.4142 17L35.7071 13.7071C36.0976 13.3166 36.0976 12.6834 35.7071 12.2929C35.3166 11.9024 34.6834 11.9024 34.2929 12.2929L29.2929 17.2929C29.0069 17.5789 28.9213 18.009 29.0761 18.3827C29.2309 18.7564 29.5955 19 30 19H36.5858L33 22.5858V22C33 21.4477 32.5523 21 32 21C31.4477 21 31 21.4477 31 22V25C31 25.5523 31.4477 26 32 26H35C35.5523 26 36 25.5523 36 25C36 24.4477 35.5523 24 35 24H34.4142L39.7071 18.7071C39.9931 18.4211 40.0787 17.991 39.9239 17.6173C39.7691 17.2436 39.4045 17 39 17H32.4142Z" fill="#3860D9"/>
<g opacity="0.15">
<path d="M29 6C27.8954 6 27 6.89543 27 8V37C27 38.1046 27.8954 39 29 39H33C34.1046 39 35 38.1046 35 37V8C35 6.89543 34.1046 6 33 6H29Z" fill="#3860D9"/>
<path d="M10 11C10 10.4477 10.4477 10 11 10H21C21.5523 10 22 10.4477 22 11V17C22 17.5523 21.5523 18 21 18H11C10.4477 18 10 17.5523 10 17V11Z" fill="#3860D9"/>
<path d="M10 26C10 25.4477 10.4477 25 11 25H21C21.5523 25 22 25.4477 22 26V32C22 32.5523 21.5523 33 21 33H11C10.4477 33 10 32.5523 10 32V26Z" fill="#3860D9"/>
</g>
</g>
<defs>
<clipPath id="clip0">
<rect width="40" height="40" fill="white"/>
</clipPath>
</defs>
</svg>
