<svg width="40" height="40" viewBox="0 0 40 40" fill="none" xmlns="http://www.w3.org/2000/svg">
<path fill-rule="evenodd" clip-rule="evenodd" d="M6 2C5.44772 2 5 2.44772 5 3V4C5 4.55228 4.55228 5 4 5C3.44772 5 3 4.55228 3 4V3C3 1.34315 4.34315 0 6 0H34C35.5308 0 36.9651 0.370218 38.05 1.02119C39.1151 1.66021 40 2.68231 40 4V36C40 37.3177 39.1151 38.3398 38.05 38.9788C36.9651 39.6298 35.5308 40 34 40C32.4692 40 31.0349 39.6298 29.95 38.9788C28.8849 38.3398 28 37.3177 28 36H12C11.4477 36 11 35.5523 11 35C11 34.4477 11.4477 34 12 34H28V4C28 3.22521 28.306 2.55262 28.7746 2H6ZM30.979 2.73617C31.7037 2.30135 32.7694 2 34 2C35.2306 2 36.2963 2.30135 37.021 2.73617C37.7656 3.18293 38 3.66083 38 4C38 4.33917 37.7656 4.81707 37.021 5.26383C36.2963 5.69865 35.2306 6 34 6C32.7694 6 31.7037 5.69865 30.979 5.26383C30.2344 4.81707 30 4.33917 30 4C30 3.66083 30.2344 3.18293 30.979 2.73617ZM38 7.00849V36C38 36.3392 37.7656 36.8171 37.021 37.2638C36.2963 37.6986 35.2306 38 34 38C32.7694 38 31.7037 37.6986 30.979 37.2638C30.2344 36.8171 30 36.3392 30 36V7.00849C31.0788 7.64102 32.4926 8 34 8C35.5074 8 36.9212 7.64102 38 7.00849Z" fill="#3860D9"/>
<path fill-rule="evenodd" clip-rule="evenodd" d="M4.91915 8.60608C4.76157 8.2384 4.40003 8 4 8C3.59997 8 3.23843 8.2384 3.08085 8.60608L0.080855 15.6061C0.0275077 15.7306 0 15.8646 0 16V33C0 34.6569 1.34315 36 3 36H5C6.65685 36 8 34.6569 8 33V16C8 15.8646 7.97249 15.7306 7.91915 15.6061L4.91915 8.60608ZM2 29V18H6V29H2ZM3.37368 13L2.08797 16H5.91203L4.62632 13H3.37368ZM6 31V33C6 33.5523 5.55228 34 5 34H3C2.44772 34 2 33.5523 2 33V31H6Z" fill="#3860D9"/>
<path d="M12 6C11.4477 6 11 6.44772 11 7V16C11 16.5523 11.4477 17 12 17C12.5523 17 13 16.5523 13 16V8H21V12.625C21 13.1773 21.4477 13.625 22 13.625C22.5523 13.625 23 13.1773 23 12.625V8H25C25.5523 8 26 7.55228 26 7C26 6.44772 25.5523 6 25 6H12Z" fill="#3860D9"/>
<path d="M11 29C11 29.5523 11.4477 30 12 30H25C25.5523 30 26 29.5523 26 29C26 28.4477 25.5523 28 25 28H23V24C23 23.4477 22.5523 23 22 23C21.4477 23 21 23.4477 21 24V28H13V21C13 20.4477 12.5523 20 12 20C11.4477 20 11 20.4477 11 21V29Z" fill="#3860D9"/>
<path d="M18 14C18 13.4477 17.5523 13 17 13C16.4477 13 16 13.4477 16 14V22C16 22.5523 16.4477 23 17 23C17.5523 23 18 22.5523 18 22V19H25C25.5523 19 26 18.5523 26 18C26 17.4477 25.5523 17 25 17H18V14Z" fill="#3860D9"/>
<g opacity="0.15">
<path d="M32.1772 1.20557C30.3172 1.64269 29 2.72903 29 3.99996C29 5.65682 31.2386 6.99996 34 6.99996C36.3031 6.99996 38.2425 6.0657 38.8228 4.79436C38.258 4.92709 37.6432 4.99996 37 4.99996C34.2386 4.99996 32 3.65682 32 1.99996C32 1.72495 32.0617 1.45858 32.1772 1.20557Z" fill="#3860D9"/>
<path d="M33 10V39C36.2 39 38.3333 37.3333 39 36.5V8.5C39 8.5 38 10.5 33 10Z" fill="#3860D9"/>
<path d="M5 20C4.44772 20 4 20.4477 4 21V30H7V20H5Z" fill="#3860D9"/>
</g>
</svg>
