<svg width="40" height="40" viewBox="0 0 40 40" fill="none" xmlns="http://www.w3.org/2000/svg">
<path fill-rule="evenodd" clip-rule="evenodd" d="M24 5C17.9249 5 13 9.92487 13 16C13 22.0751 17.9249 27 24 27C30.0751 27 35 22.0751 35 16C35 9.92487 30.0751 5 24 5ZM23 7.05493C18.5 7.55237 15 11.3674 15 16C15 17.0919 15.1944 18.1383 15.5506 19.1067C15.5648 19.0995 15.5792 19.0927 15.5939 19.0862L19.2209 17.4742C19.0773 17.0082 19 16.5131 19 16C19 13.581 20.7178 11.5633 23 11.1V7.05493ZM20.1863 19.2337L16.4468 20.8957C17.88 23.1023 20.2538 24.6415 23 24.9451V20.9C21.8812 20.6729 20.898 20.0722 20.1863 19.2337ZM33 16C33 20.6326 29.5 24.4476 25 24.9451V20.9C27.2822 20.4367 29 18.419 29 16C29 13.581 27.2822 11.5633 25 11.1V7.05493C29.5 7.55237 33 11.3674 33 16ZM27 16C27 17.6569 25.6569 19 24 19C22.3431 19 21 17.6569 21 16C21 14.3431 22.3431 13 24 13C25.6569 13 27 14.3431 27 16Z" fill="#3860D9"/>
<path d="M5 10C5 9.44771 5.44772 9 6 9H9C9.55228 9 10 9.44771 10 10C10 10.5523 9.55228 11 9 11H6C5.44772 11 5 10.5523 5 10Z" fill="#3860D9"/>
<path d="M6 13C5.44772 13 5 13.4477 5 14C5 14.5523 5.44772 15 6 15H9C9.55228 15 10 14.5523 10 14C10 13.4477 9.55228 13 9 13H6Z" fill="#3860D9"/>
<path d="M5 18C5 17.4477 5.44772 17 6 17H9C9.55228 17 10 17.4477 10 18C10 18.5523 9.55228 19 9 19H6C5.44772 19 5 18.5523 5 18Z" fill="#3860D9"/>
<path d="M6 21C5.44772 21 5 21.4477 5 22C5 22.5523 5.44772 23 6 23H9C9.55228 23 10 22.5523 10 22C10 21.4477 9.55228 21 9 21H6Z" fill="#3860D9"/>
<path fill-rule="evenodd" clip-rule="evenodd" d="M4 0C1.79086 0 0 1.79086 0 4V28C0 30.2091 1.79086 32 4 32H13V38H12C11.4477 38 11 38.4477 11 39C11 39.5523 11.4477 40 12 40H28C28.5523 40 29 39.5523 29 39C29 38.4477 28.5523 38 28 38H27V32H36C38.2091 32 40 30.2091 40 28V4C40 1.79086 38.2091 0 36 0H4ZM25 38V32H15V38H25ZM4 30C2.89543 30 2 29.1046 2 28V4C2 2.89543 2.89543 2 4 2H36C37.1046 2 38 2.89543 38 4V28C38 29.1046 37.1046 30 36 30H4Z" fill="#3860D9"/>
<g opacity="0.15">
<path d="M7 9C7 7.34315 8.34315 6 10 6H24C18.4772 6 14 10.4772 14 16C14 21.5228 18.4772 26 24 26C29.5228 26 34 21.5228 34 16C34 10.4772 29.5228 6 24 6H36C37.6569 6 39 7.34315 39 9V28C39 29.6569 37.6569 31 36 31H10C8.34315 31 7 29.6569 7 28V9Z" fill="#3860D9"/>
<path d="M24 20C26.2091 20 28 18.2091 28 16C28 13.7909 26.2091 12 24 12C21.7909 12 20 13.7909 20 16C20 18.2091 21.7909 20 24 20Z" fill="#3860D9"/>
<path d="M26 34H17V39H26V34Z" fill="#3860D9"/>
</g>
</svg>
