<svg width="40" height="40" viewBox="0 0 40 40" fill="none" xmlns="http://www.w3.org/2000/svg">
<path d="M0 2C0 0.895433 0.89543 0 2 0H15C16.1046 0 17 0.895431 17 2V3C17 3.55229 16.5523 4 16 4C15.4477 4 15 3.55229 15 3V2L2 2V38H15V26C15 25.4477 15.4477 25 16 25C16.5523 25 17 25.4477 17 26V38C17 39.1046 16.1046 40 15 40H2C0.89543 40 0 39.1046 0 38V2Z" fill="#3860D9"/>
<path d="M38 0C39.1046 0 40 0.895431 40 2V14C40 15.1046 39.1046 16 38 16H26C25.4477 16 25 15.5523 25 15C25 14.4477 25.4477 14 26 14H38V2L19 2C18.4477 2 18 1.55228 18 1C18 0.447715 18.4477 0 19 0H38Z" fill="#3860D9"/>
<path fill-rule="evenodd" clip-rule="evenodd" d="M12.0591 5.62327C11.5627 5.10936 10.8298 4.89933 10.1365 5.0723L7.33991 5.77004C6.64663 5.943 6.09829 6.47269 5.90144 7.15958L5.10739 9.93039C4.91055 10.6173 5.0951 11.357 5.59154 11.8709L6.56093 12.8744C5.5084 15.1008 5.90178 17.8406 7.74369 19.6825L9.07754 21.0163C11.2963 23.2351 14.634 23.653 17.2743 22.27L31.732 38.6445C33.2547 40.3691 35.915 40.4568 37.548 38.8362L38.8055 37.5883C40.4462 35.9602 40.3694 33.2843 38.6381 31.7529L22.2663 17.2718C23.6409 14.6336 23.2207 11.3033 21.0056 9.08822L19.6718 7.75437C17.851 5.93363 15.153 5.52833 12.9407 6.53589L12.0591 5.62327ZM12.0004 15.5359L10.6714 14.2069L12.3133 13.7972C13.0066 13.6243 13.555 13.0946 13.7518 12.4077L14.2399 10.7043L15.5359 12.0003C16.317 12.7814 16.317 14.0477 15.5359 14.8288L14.8288 15.5359C14.0478 16.3169 12.7815 16.3169 12.0004 15.5359ZM12.027 8.49137C11.9803 8.44468 11.9388 8.39392 11.9027 8.33998L10.6207 7.01281L7.82405 7.71055L7.03 10.4814L9.03257 12.5544L11.8292 11.8567L12.6229 9.08725L12.027 8.49137ZM14.4755 8.11147L16.9502 10.5861C18.5123 12.1482 18.5123 14.6809 16.9502 16.243L16.2431 16.9501C14.681 18.5122 12.1483 18.5122 10.5862 16.9501L8.10505 14.4689C7.77696 15.7865 8.12843 17.2388 9.1579 18.2682L10.4918 19.6021C12.4444 21.5547 15.6102 21.5547 17.5628 19.6021L19.5914 17.5735C21.544 15.6209 21.544 12.4551 19.5914 10.5024L18.2576 9.16858C17.2326 8.14361 15.7885 7.79072 14.4755 8.11147ZM33.2312 37.3207L19.0287 21.2353L21.2347 19.0294L37.313 33.251C38.1787 34.0167 38.2171 35.3546 37.3968 36.1687L36.1392 37.4166C35.3227 38.2269 33.9926 38.183 33.2312 37.3207Z" fill="#3860D9"/>
<g opacity="0.15">
<path d="M26 15C26.5 10 21.5 6 21.5 6H39V15H26Z" fill="#3860D9"/>
<path d="M14 9L17 12V15L15 17H12L9 14L12.5 12.5L14 9Z" fill="#3860D9"/>
<path d="M6 21.5C6 21.5 9.5 26.5 16 26V39H6V21.5Z" fill="#3860D9"/>
<path d="M19.5 19.5L33 33.5C35.5 36 38 33 38 33L39 34L38.5 36.5L37 38L35 39L33 38.5L24.5 29L17.5 21L19.5 19.5Z" fill="#3860D9"/>
</g>
</svg>
