<svg width="40" height="40" viewBox="0 0 40 40" fill="none" xmlns="http://www.w3.org/2000/svg">
<path fill-rule="evenodd" clip-rule="evenodd" d="M22 18V7H11V18H22ZM39 31V29C39 28.4477 38.5523 28 38 28H2C1.44772 28 1 28.4477 1 29V31C1 31.5523 1.44772 32 2 32H38C38.5523 32 39 31.5523 39 31Z" fill="#3761E9" fill-opacity="0.15"/>
<path fill-rule="evenodd" clip-rule="evenodd" d="M4 2C4 0.89543 4.89543 0 6 0H25C25.2652 0 25.5196 0.105357 25.7071 0.292893L28.7071 3.29289C28.8946 3.48043 29 3.73478 29 4V5H31V4C31 3.84476 31.0362 3.69164 31.1056 3.55279L32.6056 0.552788C32.775 0.214003 33.1212 0 33.5 0C33.8788 0 34.225 0.214003 34.3944 0.552786L35.8944 3.55279C35.9639 3.69164 36 3.84476 36 4V5H37C38.6569 5 40 6.34315 40 8V28V30C40 31.6569 38.6569 33 37 33H25V35H26C27.6569 35 29 36.3431 29 38V39C29 39.5523 28.5523 40 28 40H12C11.4477 40 11 39.5523 11 39V38C11 36.3431 12.3431 35 14 35H15V33H3C1.34314 33 0 31.6569 0 30V28V8C0 6.34314 1.34315 5 3 5H4V2ZM23 33V35H17V33H23ZM14 37H15H16H24H25H26C26.5523 37 27 37.4477 27 38H13C13 37.4477 13.4477 37 14 37ZM36 7V20V23C36 24.1046 35.1046 25 34 25H33C31.8954 25 31 24.1046 31 23L31 20L31 7H29V23C29 24.1046 28.1046 25 27 25H6C4.89543 25 4 24.1046 4 23V7H3C2.44771 7 2 7.44771 2 8V27H38V8C38 7.44771 37.5523 7 37 7H36ZM24.5858 2L6 2V23H27V4.41421L24.5858 2ZM15 31H16H24H25H37C37.5523 31 38 30.5523 38 30V29H2V30C2 30.5523 2.44772 31 3 31H15ZM33 21L33 23H34V21H33ZM33 4.23607L33 19H34V4.23607L33.5 3.23607L33 4.23607ZM9 8.50018C8.39278 8.04408 8 7.31791 8 6.5C8 5.11929 9.11929 4 10.5 4C11.3179 4 12.0441 4.39278 12.5002 5H20.4998C20.9559 4.39278 21.6821 4 22.5 4C23.8807 4 25 5.11929 25 6.5C25 7.31791 24.6072 8.04408 24 8.50018V16.4998C24.6072 16.9559 25 17.6821 25 18.5C25 19.8807 23.8807 21 22.5 21C21.6821 21 20.9559 20.6072 20.4998 20H12.5002C12.0441 20.6072 11.3179 21 10.5 21C9.11929 21 8 19.8807 8 18.5C8 17.6821 8.39278 16.9559 9 16.4998V8.50018ZM11 8.94999V16.05C11.9796 16.2488 12.7512 17.0204 12.95 18H20.05C20.2488 17.0204 21.0204 16.2488 22 16.05V8.94999C21.0204 8.75115 20.2488 7.97956 20.05 7H12.95C12.7512 7.97957 11.9796 8.75115 11 8.94999ZM10.5 6C10.2239 6 10 6.22386 10 6.5C10 6.77614 10.2239 7 10.5 7C10.7761 7 11 6.77614 11 6.5C11 6.22386 10.7761 6 10.5 6ZM10.5 18C10.2239 18 10 18.2239 10 18.5C10 18.7761 10.2239 19 10.5 19C10.7761 19 11 18.7761 11 18.5C11 18.2239 10.7761 18 10.5 18ZM22 6.5C22 6.22386 22.2239 6 22.5 6C22.7761 6 23 6.22386 23 6.5C23 6.77614 22.7761 7 22.5 7C22.2239 7 22 6.77614 22 6.5ZM22.5 18C22.2239 18 22 18.2239 22 18.5C22 18.7761 22.2239 19 22.5 19C22.7761 19 23 18.7761 23 18.5C23 18.2239 22.7761 18 22.5 18ZM14 11C14.5523 11 15 10.5523 15 10C15 9.44771 14.5523 9 14 9C13.4477 9 13 9.44771 13 10C13 10.5523 13.4477 11 14 11ZM15 15C15 15.5523 14.5523 16 14 16C13.4477 16 13 15.5523 13 15C13 14.4477 13.4477 14 14 14C14.5523 14 15 14.4477 15 15ZM19 16C19.5523 16 20 15.5523 20 15C20 14.4477 19.5523 14 19 14C18.4477 14 18 14.4477 18 15C18 15.5523 18.4477 16 19 16ZM20 10C20 10.5523 19.5523 11 19 11C18.4477 11 18 10.5523 18 10C18 9.44771 18.4477 9 19 9C19.5523 9 20 9.44771 20 10ZM16.5 13.7408C17.1853 13.7408 17.7408 13.1853 17.7408 12.5C17.7408 11.8147 17.1853 11.2592 16.5 11.2592C15.8147 11.2592 15.2592 11.8147 15.2592 12.5C15.2592 13.1853 15.8147 13.7408 16.5 13.7408Z" fill="#3761E9"/>
</svg>
