<svg width="41" height="41" viewBox="0 0 41 41" fill="none" xmlns="http://www.w3.org/2000/svg">
<path d="M29 18C29 17.4477 28.5523 17 28 17C27.4477 17 27 17.4477 27 18V27C27 27.5523 27.4477 28 28 28C28.5523 28 29 27.5523 29 27V18Z" fill="#3860D9"/>
<path d="M23 20C23.5523 20 24 20.4477 24 21V30C24 30.5523 23.5523 31 23 31C22.4477 31 22 30.5523 22 30V21C22 20.4477 22.4477 20 23 20Z" fill="#3860D9"/>
<path d="M19 24C19 23.4477 18.5523 23 18 23C17.4477 23 17 23.4477 17 24V32C17 32.5523 17.4477 33 18 33C18.5523 33 19 32.5523 19 32V24Z" fill="#3860D9"/>
<path d="M13 26C13.5523 26 14 26.4477 14 27V34C14 34.5523 13.5523 35 13 35C12.4477 35 12 34.5523 12 34V27C12 26.4477 12.4477 26 13 26Z" fill="#3860D9"/>
<path fill-rule="evenodd" clip-rule="evenodd" d="M38.3 0.400017C37.9961 -0.00516507 37.4373 -0.119173 36.999 0.13459L28.9959 4.76797C28.6567 4.96434 28.3533 5.20626 28.0916 5.48346L23.8938 4.22413C23.3018 4.04653 22.6694 4.05611 22.0831 4.25156L16.9917 5.9487C16.8897 5.98269 16.7829 6.00002 16.6754 6.00002H13.6056C13.0133 6.00002 12.4343 6.17533 11.9415 6.50387L9.49711 8.13343L6.37555 9.69421C5.59223 10.0859 5.01917 10.8003 4.80676 11.6499L4.12782 14.3657C4.09549 14.495 4.03764 14.6165 3.95767 14.7231L1.4722 18.0371C1.20342 18.3955 1.01831 18.8095 0.930455 19.2487L0.0913137 23.4445C0.0200177 23.8009 0.0141083 24.1674 0.073874 24.526L0.884693 29.3909L0.467191 29.6538C0.197119 29.8238 0.0244323 30.1126 0.00239196 30.431C-0.0196484 30.7493 0.111605 31.0591 0.35567 31.2648L9.89061 39.2984C10.7809 40.0485 12.0247 40.2158 13.0816 39.7277L29.9789 31.9228L33.0763 39.3834C33.2313 39.7567 33.5957 40 33.9999 40H37.9999C38.3317 40 38.6419 39.8354 38.828 39.5606C39.014 39.2859 39.0516 38.9367 38.9284 38.6286L35.2687 29.4795L38.2605 28.0976C39.6096 27.4744 40.2992 25.9574 39.8816 24.5312L35.1263 8.28796L39.7071 3.70712C40.059 3.35523 40.0986 2.79814 39.8 2.40002L38.3 0.400017ZM23.3191 6.13978L27.1147 7.27844C27.0393 7.58604 27 7.90506 27 8.22967V12.9479L25.6879 13.7741C25.6645 13.752 25.6399 13.7308 25.6139 13.7107L21.55 10.5498L21.9651 6.39908L22.7156 6.14893C22.911 6.08378 23.1218 6.08059 23.3191 6.13978ZM19.8858 7.09218L17.6241 7.84607C17.3182 7.94803 16.9979 8.00002 16.6754 8.00002H13.6056C13.4081 8.00002 13.2151 8.05845 13.0509 8.16797L10.5657 9.82476L11.2853 14.6625L16.133 16.1996C16.6595 16.3665 16.951 16.9286 16.784 17.4551C16.6171 17.9815 16.055 18.273 15.5286 18.1061L10.0858 16.3803C9.72165 16.2649 9.45511 15.9521 9.39891 15.5742L8.68509 10.7755L7.26997 11.4831C7.00887 11.6136 6.81785 11.8517 6.74705 12.135L6.0681 14.8507C5.97113 15.2386 5.79758 15.6032 5.55767 15.9231L3.0722 19.2371C2.9826 19.3566 2.9209 19.4946 2.89162 19.641L2.77871 20.2055L4.72991 20.8559L7.2929 18.2929C7.68342 17.9024 8.31659 17.9024 8.70711 18.2929C9.09764 18.6834 9.09764 19.3166 8.70711 19.7071L6.36191 22.0523L8.52746 24.5788L23.8918 14.905L20.3588 12.1571L16.4061 13.9138C15.9015 14.1381 15.3105 13.9108 15.0862 13.4062C14.8619 12.9015 15.0892 12.3105 15.5939 12.0862L19.5628 10.3222L19.8858 7.09218ZM6.81662 25.656L4.42101 22.8611L2.38343 22.1819L2.05247 23.8367C2.02871 23.9555 2.02674 24.0777 2.04666 24.1972L2.71972 28.2355L6.81662 25.656ZM33.4506 30.3193L31.796 31.0835L34.6675 38H36.5229L33.4506 30.3193ZM29.9979 6.49882L37.2327 2.31027L37.6796 2.90618L33.2929 7.29291C33.0345 7.55135 32.9376 7.93021 33.0403 8.28098L37.9622 25.0931C38.1014 25.5685 37.8715 26.0742 37.4218 26.2819L12.2429 37.912C11.8907 38.0747 11.476 38.019 11.1793 37.7689L2.69092 30.6171L28.5328 14.3462C28.8236 14.1632 29 13.8436 29 13.5V8.22967C29 7.516 29.3803 6.8564 29.9979 6.49882Z" fill="#3860D9"/>
<g opacity="0.15">
<path d="M25.5 5.5L22 12L25.5 15L28.5 13V6.5L25.5 5.5Z" fill="#3860D9"/>
<path d="M13 7L10 9.5V15L16 17.5V13L13 7Z" fill="#3860D9"/>
<path d="M5.5 22L8.5 18.5L15 21.5L8.5 26L5.5 22Z" fill="#3860D9"/>
<path d="M14.4031 37.9176L9.41065 32.9129C8.94929 32.4504 9.04803 31.6769 9.6108 31.3452L31.0421 18.7116L33.265 7.98474L36.3747 16.9508L38.7862 25.3241L38.1833 26.3959L14.4031 37.9176Z" fill="#3860D9"/>
</g>
</svg>
