<svg width="40" height="40" viewBox="0 0 40 40" fill="none" xmlns="http://www.w3.org/2000/svg">
<path d="M13 0C10.2386 0 8 2.23858 8 5V13C8 13.5523 8.44771 14 9 14C9.55228 14 10 13.5523 10 13V5C10 3.34315 11.3431 2 13 2H35C36.6569 2 38 3.34315 38 5V35C38 36.6569 36.6569 38 35 38H13C11.3431 38 10 36.6569 10 35V31C10 30.4477 9.55228 30 9 30C8.44771 30 8 30.4477 8 31V35C8 37.7614 10.2386 40 13 40H35C37.7614 40 40 37.7614 40 35V5C40 2.23858 37.7614 0 35 0H13Z" fill="#3860D9"/>
<path d="M29 33C28.4477 33 28 33.4477 28 34C28 34.5523 28.4477 35 29 35H31C31.5523 35 32 34.5523 32 34C32 33.4477 31.5523 33 31 33H29Z" fill="#3860D9"/>
<path d="M23 33C22.4477 33 22 33.4477 22 34C22 34.5523 22.4477 35 23 35H25C25.5523 35 26 34.5523 26 34C26 33.4477 25.5523 33 25 33H23Z" fill="#3860D9"/>
<path d="M17 33C16.4477 33 16 33.4477 16 34C16 34.5523 16.4477 35 17 35H19C19.5523 35 20 34.5523 20 34C20 33.4477 19.5523 33 19 33H17Z" fill="#3860D9"/>
<path fill-rule="evenodd" clip-rule="evenodd" d="M13.6783 9.78784C13.1127 8.4681 14.0807 7 15.5166 7H32.4835C33.9193 7 34.8874 8.4681 34.3218 9.78784L31.9282 15.3727C31.9226 15.3867 31.9167 15.4006 31.9104 15.4143L29 22.2053V28C29 29.1046 28.1046 30 27 30H21C19.8955 30 19 29.1046 19 28V22.2053L16.0896 15.4142C16.0834 15.4006 16.0774 15.3867 16.0718 15.3727L13.6783 9.78784ZM32.4835 9L30.3406 14H17.6594L15.5166 9H32.4835ZM20.6594 21L18.5166 16H29.4835L27.3406 21H20.6594ZM21 23V28H27V23H21Z" fill="#3860D9"/>
<path fill-rule="evenodd" clip-rule="evenodd" d="M14 29C14 29.3688 13.797 29.7077 13.4719 29.8817C13.1467 30.0557 12.7522 30.0366 12.4453 29.8321L9.69722 28H4C1.79086 28 0 26.2091 0 24V20C0 17.7909 1.79086 16 4 16H9C11.7614 16 14 18.2386 14 21V29ZM10.8066 26.3359L12 27.1315V21C12 19.3431 10.6569 18 9 18H4C2.89543 18 2 18.8954 2 20V24C2 25.1046 2.89543 26 4 26H9.69722C10.0921 26 10.4781 26.1169 10.8066 26.3359Z" fill="#3860D9"/>
<g opacity="0.15">
<path d="M19 5C17.8954 5 17 5.89543 17 7V8H33.5V9.5L29.76 18H21L22.8947 22H28V29H20V22L17 15V37C17 38.1046 17.8954 39 19 39H35C37.2091 39 39 37.2091 39 35V7C39 5.89543 38.1046 5 37 5H19Z" fill="#3860D9"/>
<path d="M5 20C4.44772 20 4 20.4477 4 21V28H13V20H5Z" fill="#3860D9"/>
</g>
</svg>
