<svg width="40" height="40" viewBox="0 0 40 40" fill="none" xmlns="http://www.w3.org/2000/svg">
<path fill-rule="evenodd" clip-rule="evenodd" d="M1.37897 2.64554C0.637626 3.20641 0 3.99208 0 5V35C0 36.0079 0.637626 36.7936 1.37897 37.3545C2.13658 37.9276 3.16959 38.4011 4.35639 38.7808C6.74138 39.544 9.97398 40 13.5 40C17.9745 40 22.0203 39.265 24.443 38.0677C24.9382 37.823 25.1412 37.2233 24.8965 36.7282C24.6518 36.2331 24.0521 36.03 23.557 36.2747C21.5258 37.2785 17.83 38 13.5 38C10.1225 38 7.10506 37.5605 4.96594 36.876C3.89068 36.5319 3.09312 36.1434 2.58566 35.7595C2.06193 35.3633 2 35.0966 2 35V30.1209C5.8688 33.1088 11.2066 35.7475 18.2449 33.9695C18.7804 33.8343 19.1048 33.2905 18.9695 32.7551C18.8343 32.2196 18.2905 31.8952 17.7551 32.0305C10.8252 33.781 5.74517 30.7428 2 27.5428V21.176C4.9666 23.6348 9.11009 26.4487 14.0905 25.9959C14.6406 25.9459 15.0459 25.4595 14.9959 24.9095C14.9459 24.3594 14.4595 23.9541 13.9095 24.0041C9.08286 24.4429 5.05857 21.2072 2 18.5455V12.1745C5.08106 14.7209 9.23757 17.4462 15.0767 16.9971C15.6274 16.9547 16.0394 16.474 15.9971 15.9233C15.9547 15.3726 15.474 14.9606 14.9233 15.0029C9.09333 15.4514 5.1732 12.3089 2 9.54563V7.76756C2.66518 8.15955 3.46767 8.49646 4.35639 8.78085C6.74138 9.54405 9.97398 10 13.5 10C17.026 10 20.2586 9.54405 22.6436 8.78085C23.5323 8.49646 24.3348 8.15955 25 7.76756V9C25 9.55228 25.4477 10 26 10C26.5523 10 27 9.55228 27 9V5C27 3.99208 26.3624 3.20641 25.621 2.64554C24.8634 2.07236 23.8304 1.59892 22.6436 1.21915C20.2586 0.455952 17.026 0 13.5 0C9.97398 0 6.74138 0.455952 4.35639 1.21915C3.16959 1.59892 2.13658 2.07236 1.37897 2.64554ZM2.58566 4.2405C2.06193 4.63673 2 4.90336 2 5C2 5.09664 2.06193 5.36327 2.58566 5.7595C3.09312 6.14343 3.89068 6.53192 4.96594 6.876C7.10506 7.56052 10.1225 8 13.5 8C16.8775 8 19.8949 7.56052 22.0341 6.876C23.1093 6.53192 23.9069 6.14343 24.4143 5.7595C24.9381 5.36327 25 5.09664 25 5C25 4.90336 24.9381 4.63673 24.4143 4.2405C23.9069 3.85657 23.1093 3.46808 22.0341 3.124C19.8949 2.43948 16.8775 2 13.5 2C10.1225 2 7.10506 2.43948 4.96594 3.124C3.89068 3.46808 3.09312 3.85657 2.58566 4.2405Z" fill="#3860D9"/>
<path fill-rule="evenodd" clip-rule="evenodd" d="M21 23.5C21 19.3579 24.3579 16 28.5 16C32.6421 16 36 19.3579 36 23.5C36 27.6421 32.6421 31 28.5 31C24.3579 31 21 27.6421 21 23.5ZM23.9683 20.3824C23.3576 21.2685 23 22.3425 23 23.5C23 24.6575 23.3576 25.7315 23.9683 26.6176L25.4207 25.1652C25.1524 24.67 25 24.1028 25 23.5C25 22.8972 25.1524 22.33 25.4207 21.8349L23.9683 20.3824ZM25.3825 18.9682L26.8349 20.4207C27.3301 20.1524 27.8973 20 28.5 20C29.1028 20 29.67 20.1524 30.1652 20.4207L31.6176 18.9683C30.7315 18.3576 29.6575 18 28.5 18C27.3425 18 26.2685 18.3576 25.3825 18.9682ZM33.0318 20.3825L31.5793 21.835C31.8476 22.3301 32 22.8973 32 23.5C32 24.1027 31.8476 24.6699 31.5793 25.1651L33.0318 26.6175C33.6424 25.7315 34 24.6575 34 23.5C34 22.3425 33.6425 21.2686 33.0318 20.3825ZM31.6176 28.0317L30.1651 26.5793C29.67 26.8476 29.1028 27 28.5 27C27.8973 27 27.3301 26.8476 26.835 26.5793L25.3825 28.0318C26.2686 28.6425 27.3425 29 28.5 29C29.6575 29 30.7315 28.6424 31.6176 28.0317ZM27 23.5C27 22.6716 27.6716 22 28.5 22C29.3284 22 30 22.6716 30 23.5C30 24.3284 29.3284 25 28.5 25C27.6716 25 27 24.3284 27 23.5Z" fill="#3860D9"/>
<path fill-rule="evenodd" clip-rule="evenodd" d="M28.5 12C22.1487 12 17 17.1487 17 23.5C17 29.8513 22.1487 35 28.5 35C34.8513 35 40 29.8513 40 23.5C40 17.1487 34.8513 12 28.5 12ZM19 23.5C19 18.2533 23.2533 14 28.5 14C33.7467 14 38 18.2533 38 23.5C38 28.7467 33.7467 33 28.5 33C23.2533 33 19 28.7467 19 23.5Z" fill="#3860D9"/>
<g opacity="0.15">
<path d="M10 9C14.9706 9 19 7.88071 19 6.5C19 5.11929 14.9706 4 10 4C5.02944 4 1 5.11929 1 6.5C1 7.88071 5.02944 9 10 9Z" fill="#3860D9"/>
<path d="M11.0029 12.9899C21.3992 12.8807 24.587 11.884 26 10V13.2994C21.408 14.421 18 18.5625 18 23.5C18 26.3995 19.1752 29.0245 21.0754 30.9246L23.9038 28.0962C25.0801 29.2725 26.7051 30 28.5 30C32.0899 30 35 27.0899 35 23.5C35 21.7051 34.2725 20.0801 33.0962 18.9038L35.9246 16.0754C37.8247 17.9755 39 20.6005 39 23.5C39 29.299 34.299 34 28.5 34C27.6385 34 26.8012 33.8962 26 33.7006V33.7639C26 35.1343 25.2257 36.3871 24 37L19.5 38.5L11.8573 38.1361C10.2577 38.0599 9 36.7408 9 35.1395V15C9 13.8954 9.89842 13.0015 11.0029 12.9899Z" fill="#3860D9"/>
<path d="M33.0962 18.9038C31.9199 17.7275 30.2949 17 28.5 17C24.9101 17 22 19.9101 22 23.5C22 25.2949 22.7275 26.9199 23.9038 28.0962L26.7322 25.2678C26.2798 24.8154 26 24.1904 26 23.5C26 22.1193 27.1193 21 28.5 21C29.1904 21 29.8154 21.2798 30.2678 21.7322L33.0962 18.9038Z" fill="#3860D9"/>
</g>
</svg>
