<svg width="40" height="40" viewBox="0 0 40 40" fill="none" xmlns="http://www.w3.org/2000/svg">
<path fill-rule="evenodd" clip-rule="evenodd" d="M13.9364 2V8H12.9258C11.2514 8 9.89404 9.34315 9.89404 11V14C9.89404 14.0694 9.89761 14.138 9.90458 14.2055C8.53079 14.5425 7.27688 15.2832 6.31909 16.3495L0.765848 22.5313C0.089213 23.2846 -0.160007 24.3237 0.102415 25.2974L3.46448 37.773C3.81839 39.0863 5.02035 40 6.3939 40H7.87285C8.15435 40 8.42309 39.8838 8.61435 39.6795C8.80561 39.4751 8.90206 39.201 8.88047 38.9233L7.92681 26.6557L12.2906 24.9285C12.8088 24.7234 13.0608 24.1414 12.8535 23.6286C12.6463 23.1158 12.0581 22.8664 11.5399 23.0715L6.48693 25.0715C6.07682 25.2338 5.82076 25.6409 5.85464 26.0767L6.78153 38H6.3939C5.93605 38 5.5354 37.6954 5.41743 37.2577L2.20911 25.3526L4.01619 25.9487C4.54568 26.1233 5.118 25.8401 5.2945 25.3162C5.471 24.7923 5.18484 24.2259 4.65534 24.0513L2.68774 23.4023L7.82975 17.6782C8.78864 16.6107 10.1631 16 11.6064 16H15.6739L14.0737 22.3334C13.9678 22.7525 13.9547 23.1893 14.0351 23.6139L16.6764 37.5529C16.9453 38.9718 18.1973 40 19.6562 40H20.3438C21.8027 40 23.0547 38.9718 23.3236 37.5529L25.9649 23.6139C26.0453 23.1893 26.0322 22.7525 25.9263 22.3334L24.3261 16H28.3936C29.8369 16 31.2114 16.6107 32.1703 17.6782L37.3123 23.4023L35.3447 24.0513C34.8152 24.2259 34.529 24.7923 34.7055 25.3162C34.882 25.8401 35.4543 26.1233 35.9838 25.9487L37.7909 25.3526L34.5826 37.2577C34.4646 37.6954 34.0639 38 33.6061 38H33.2185L34.1454 26.0767C34.1792 25.6409 33.9232 25.2338 33.5131 25.0715L28.4601 23.0715C27.9419 22.8664 27.3537 23.1158 27.1465 23.6286C26.9392 24.1414 27.1912 24.7234 27.7094 24.9285L32.0732 26.6557L31.1195 38.9233C31.0979 39.201 31.1944 39.4751 31.3857 39.6795C31.5769 39.8838 31.8457 40 32.1272 40H33.6061C34.9796 40 36.1816 39.0863 36.5355 37.773L39.8976 25.2974C40.16 24.3237 39.9108 23.2846 39.2341 22.5313L33.6809 16.3495C32.7231 15.2832 31.4692 14.5425 30.0954 14.2055C30.1024 14.138 30.106 14.0694 30.106 14V11C30.106 9.34315 28.7486 8 27.0742 8H26.0636V2C26.0636 0.895431 25.1587 0 24.0424 0H15.9576C14.8413 0 13.9364 0.89543 13.9364 2ZM24.0424 2H15.9576V8H24.0424V2ZM27.0742 10C27.6323 10 28.0848 10.4477 28.0848 11V14H11.9152V11C11.9152 10.4477 12.3677 10 12.9258 10H27.0742ZM17.7573 16L16.0346 22.8185C15.9993 22.9582 15.9949 23.1038 16.0217 23.2453L18.663 37.1843C18.7526 37.6573 19.1699 38 19.6562 38H20.3438C20.8301 38 21.2474 37.6573 21.337 37.1843L23.8353 24H18.9894C18.4313 24 17.9788 23.5523 17.9788 23C17.9788 22.4477 18.4313 22 18.9894 22H23.7586L22.2427 16H17.7573Z" fill="#3860D9"/>
<g opacity="0.15">
<path d="M25 4.00003H18V9.00003H25V4.00003Z" fill="#3860D9"/>
<path d="M14 12H29V15H14V12Z" fill="#3860D9"/>
<path d="M7 26L9.5 25L10.5 24.5L13 18H10L7 20L1 25L4.5 38L6 39H8L7 26Z" fill="#3860D9"/>
<path d="M33 26L30.5 25L29.5 24.5L27 18H30L33 20L39 25L35.5 38L34 39H32L33 26Z" fill="#3860D9"/>
</g>
</svg>
