<svg width="40" height="40" viewBox="0 0 40 40" fill="none" xmlns="http://www.w3.org/2000/svg">
<path d="M12 5C12 2.23858 14.2386 0 17 0H35C37.7614 0 40 2.23858 40 5V21C40 28.1797 34.1797 34 27 34H25.5C24.9477 34 24.5 33.5523 24.5 33C24.5 32.4477 24.9477 32 25.5 32H27C33.0751 32 38 27.0751 38 21V5C38 3.34315 36.6569 2 35 2H17C15.3431 2 14 3.34315 14 5V14C14 14.5523 13.5523 15 13 15C12.4477 15 12 14.5523 12 14V5Z" fill="#3860D9"/>
<path d="M34 18C34.5523 18 35 18.4477 35 19V21.0812C35 24.4179 32.6448 27.2908 29.3728 27.9452L29.1961 27.9806C28.6546 28.0889 28.1277 27.7377 28.0194 27.1961C27.9111 26.6546 28.2623 26.1277 28.8039 26.0194L28.9806 25.9841C31.3177 25.5167 33 23.4646 33 21.0812V19C33 18.4477 33.4477 18 34 18Z" fill="#3860D9"/>
<path d="M24 19C24.5523 19 25 19.4477 25 20C25 20.5523 24.5523 21 24 21H17C16.4477 21 16 20.5523 16 20C16 19.4477 16.4477 19 17 19H24Z" fill="#3860D9"/>
<path d="M22.8284 29.8284C23.219 29.4379 23.219 28.8048 22.8284 28.4142L16.5858 22.1716C16.1953 21.7811 15.5621 21.7811 15.1716 22.1716C14.7811 22.5621 14.7811 23.1953 15.1716 23.5858L21.4142 29.8284C21.8048 30.219 22.4379 30.219 22.8284 29.8284Z" fill="#3860D9"/>
<path d="M17.8284 16.5858C18.219 16.1953 18.219 15.5621 17.8284 15.1716C17.4379 14.7811 16.8048 14.7811 16.4142 15.1716L15.1716 16.4143C14.7811 16.8048 14.7811 17.4379 15.1716 17.8285C15.5621 18.219 16.1953 18.219 16.5858 17.8285L17.8284 16.5858Z" fill="#3860D9"/>
<path fill-rule="evenodd" clip-rule="evenodd" d="M35 9C35 7.89543 34.1046 7 33 7H19C17.8954 7 17 7.89543 17 9V12C17 13.1046 17.8954 14 19 14H33C34.1046 14 35 13.1046 35 12V9ZM19 9H33V12H19V9Z" fill="#3860D9"/>
<path fill-rule="evenodd" clip-rule="evenodd" d="M8 15C9.10457 15 10 15.8954 10 17V19H12C12.5523 19 13 19.4477 13 20C13 20.5523 12.5523 21 12 21H10V23C10 24.1046 9.10457 25 8 25V29C9.10457 29 10 29.8954 10 31V39C10 39.5523 9.55229 40 9 40C8.44771 40 8 39.5523 8 39V31H2V39C2 39.5523 1.55228 40 1 40C0.447715 40 0 39.5523 0 39V31C0 29.8954 0.895431 29 2 29V25C0.895431 25 0 24.1046 0 23V17C0 15.8954 0.895431 15 2 15H8ZM8 17V23H2V17H8ZM4 25V29H6V25H4Z" fill="#3860D9"/>
<path d="M12 25C12 24.4477 12.4477 24 13 24C13.5523 24 14 24.4477 14 25V30C14 30.5523 13.5523 31 13 31C12.4477 31 12 30.5523 12 30V25Z" fill="#3860D9"/>
<g opacity="0.15">
<path d="M18 5.14074C18 3.80332 18.6684 2.5544 19.7812 1.81253L21 1H16.5L14 2L13 4V14H14C16.2091 14 18 12.2091 18 10V5.14074Z" fill="#3860D9"/>
<path d="M25.1414 33H26.9998C33.6272 33 38.9998 27.6274 38.9998 21V5C38.9998 2.79086 37.209 1 34.9998 1H24C26.2091 1 28 2.79086 28 5V8H32.9999V13H28V26C28 28.7255 26.9097 31.1962 25.1414 33Z" fill="#3860D9"/>
<path d="M9 18H4V23H9V18Z" fill="#3860D9"/>
<path d="M4 33H9V40H4V33Z" fill="#3860D9"/>
</g>
</svg>
