<svg width="40" height="40" viewBox="0 0 40 40" fill="none" xmlns="http://www.w3.org/2000/svg">
<path d="M4 0C1.79086 0 0 1.79086 0 4V28C0 30.2091 1.79086 32 4 32H15C15.5523 32 16 31.5523 16 31C16 30.4477 15.5523 30 15 30H4C2.89543 30 2 29.1046 2 28V22H16C16.5523 22 17 21.5523 17 21C17 20.4477 16.5523 20 16 20H2V4C2 2.89543 2.89543 2 4 2H36C37.1046 2 38 2.89543 38 4V20H34C33.4477 20 33 20.4477 33 21C33 21.5523 33.4477 22 34 22H38V28C38 29.1046 37.1046 30 36 30H35C34.4477 30 34 30.4477 34 31C34 31.5523 34.4477 32 35 32H36C38.2091 32 40 30.2091 40 28V4C40 1.79086 38.2091 0 36 0H4Z" fill="#3860D9"/>
<path fill-rule="evenodd" clip-rule="evenodd" d="M5 8C5 6.34315 6.34315 5 8 5H16C17.6569 5 19 6.34315 19 8V14C19 15.6569 17.6569 17 16 17H8C6.34315 17 5 15.6569 5 14V8ZM8 7C7.44772 7 7 7.44772 7 8V14C7 14.5523 7.44772 15 8 15H16C16.5523 15 17 14.5523 17 14V8C17 7.44772 16.5523 7 16 7H8Z" fill="#3860D9"/>
<path d="M8 26C8 27.1046 7.10457 28 6 28C4.89543 28 4 27.1046 4 26C4 24.8954 4.89543 24 6 24C7.10457 24 8 24.8954 8 26Z" fill="#3860D9"/>
<path fill-rule="evenodd" clip-rule="evenodd" d="M21 25C21 22.7909 22.7909 21 25 21C27.2091 21 29 22.7909 29 25C29 27.2091 27.2091 29 25 29C22.7909 29 21 27.2091 21 25ZM25 23C23.8954 23 23 23.8954 23 25C23 26.1046 23.8954 27 25 27C26.1046 27 27 26.1046 27 25C27 23.8954 26.1046 23 25 23Z" fill="#3860D9"/>
<path fill-rule="evenodd" clip-rule="evenodd" d="M25 18C21.134 18 18 21.134 18 25C18 26.5847 18.5266 28.0464 19.4143 29.2197L19.1642 30.22C19.1203 30.3959 19.0293 30.5564 18.9012 30.6846L16.5194 33.0664C15.4638 34.122 15.345 35.7933 16.2408 36.9877L17.6 38.8C18.1666 39.5554 19.0557 40 20 40H30C30.9443 40 31.8334 39.5554 32.4 38.8L33.7592 36.9877C34.655 35.7933 34.5362 34.122 33.4806 33.0664L31.0988 30.6846C30.9707 30.5564 30.8797 30.3959 30.8358 30.22L30.5857 29.2197C31.4734 28.0464 32 26.5847 32 25C32 21.134 28.866 18 25 18ZM20 25C20 22.2386 22.2386 20 25 20C27.7614 20 30 22.2386 30 25C30 27.7614 27.7614 30 25 30C22.2386 30 20 27.7614 20 25ZM28.9208 30.7997C27.8022 31.5574 26.4528 32 25 32C23.5472 32 22.1978 31.5574 21.0792 30.7997C20.9394 31.2902 20.6768 31.7375 20.3154 32.0988L17.9336 34.4806C17.5818 34.8325 17.5422 35.3896 17.8408 35.7877L19.2 37.6C19.3889 37.8518 19.6852 38 20 38H30C30.3148 38 30.6111 37.8518 30.8 37.6L32 36H21C20.4477 36 20 35.5523 20 35C20 34.4477 20.4477 34 21 34H31.5858L29.6846 32.0988C29.3232 31.7375 29.0606 31.2902 28.9208 30.7997Z" fill="#3860D9"/>
<path d="M10 26C10 25.4477 10.4477 25 11 25H15C15.5523 25 16 25.4477 16 26C16 26.5523 15.5523 27 15 27H11C10.4477 27 10 26.5523 10 26Z" fill="#3860D9"/>
<path d="M23.5 10C22.6716 10 22 9.32843 22 8.5C22 7.67157 22.6716 7 23.5 7C24.3284 7 25 7.67157 25 8.5C25 9.32843 24.3284 10 23.5 10Z" fill="#3860D9"/>
<path d="M22 13.5C22 14.3284 22.6716 15 23.5 15C24.3284 15 25 14.3284 25 13.5C25 12.6716 24.3284 12 23.5 12C22.6716 12 22 12.6716 22 13.5Z" fill="#3860D9"/>
<path d="M28.5 10C27.6716 10 27 9.32843 27 8.5C27 7.67157 27.6716 7 28.5 7C29.3284 7 30 7.67157 30 8.5C30 9.32843 29.3284 10 28.5 10Z" fill="#3860D9"/>
<path d="M27 13.5C27 14.3284 27.6716 15 28.5 15C29.3284 15 30 14.3284 30 13.5C30 12.6716 29.3284 12 28.5 12C27.6716 12 27 12.6716 27 13.5Z" fill="#3860D9"/>
<path d="M33.5 10C32.6716 10 32 9.32843 32 8.5C32 7.67157 32.6716 7 33.5 7C34.3284 7 35 7.67157 35 8.5C35 9.32843 34.3284 10 33.5 10Z" fill="#3860D9"/>
<path d="M32 13.5C32 14.3284 32.6716 15 33.5 15C34.3284 15 35 14.3284 35 13.5C35 12.6716 34.3284 12 33.5 12C32.6716 12 32 12.6716 32 13.5Z" fill="#3860D9"/>
<g opacity="0.15">
<path d="M7 6C6.44772 6 6 6.44772 6 7V20C6 20.5523 6.44771 21 7 21H16.9355C18.4082 18.0366 21.4663 16 25 16C28.5337 16 31.5918 18.0366 33.0645 21H38C38.5523 21 39 20.5523 39 20V9C39 8.44772 38.5523 8 38 8H18V16H7V12H13C13.5523 12 14 11.5523 14 11V7C14 6.44772 13.5523 6 13 6H7Z" fill="#3860D9"/>
<path d="M6 28C6 26.8954 6.89543 26 8 26H14C15.1046 26 16 26.8954 16 28V29C16 30.1046 15.1046 31 14 31H8C6.89543 31 6 30.1046 6 29V28Z" fill="#3860D9"/>
<path d="M35 28C35 26.8954 35.8954 26 37 26H38C38.5523 26 39 26.4477 39 27V28C39 29.6569 37.6569 31 36 31C35.4477 31 35 30.5523 35 30V28Z" fill="#3860D9"/>
<path fill-rule="evenodd" clip-rule="evenodd" d="M25 31C28.3137 31 31 28.3137 31 25C31 21.6863 28.3137 19 25 19C21.6863 19 19 21.6863 19 25C19 28.3137 21.6863 31 25 31ZM25 28C26.6569 28 28 26.6569 28 25C28 23.3431 26.6569 22 25 22C23.3431 22 22 23.3431 22 25C22 26.6569 23.3431 28 25 28Z" fill="#3860D9"/>
</g>
</svg>
