<svg width="40" height="40" viewBox="0 0 40 40" fill="none" xmlns="http://www.w3.org/2000/svg">
<path d="M10.7003 3.29289C11.0909 3.68342 11.0909 4.31658 10.7003 4.70711L6.69904 8.70711C6.30839 9.09763 5.67503 9.09763 5.28438 8.70711C4.89374 8.31658 4.89374 7.68342 5.28438 7.29289L9.28562 3.29289C9.67627 2.90237 10.3096 2.90237 10.7003 3.29289Z" fill="#3860D9"/>
<path d="M20.7034 4.70711C21.094 4.31658 21.094 3.68342 20.7034 3.29289C20.3127 2.90237 19.6794 2.90237 19.2887 3.29289L9.28562 13.2929C8.89498 13.6834 8.89498 14.3166 9.28562 14.7071C9.67627 15.0976 10.3096 15.0976 10.7003 14.7071L20.7034 4.70711Z" fill="#3860D9"/>
<path d="M30.7065 3.29289C31.0971 3.68342 31.0971 4.31658 30.7065 4.70711L20.7034 14.7071C20.3127 15.0976 19.6794 15.0976 19.2887 14.7071C18.8981 14.3166 18.8981 13.6834 19.2887 13.2929L29.2918 3.29289C29.6825 2.90237 30.3158 2.90237 30.7065 3.29289Z" fill="#3860D9"/>
<path d="M33.7074 11.7071C34.098 11.3166 34.098 10.6834 33.7074 10.2929C33.3168 9.90237 32.6834 9.90237 32.2927 10.2929L29.2918 13.2929C28.9012 13.6834 28.9012 14.3166 29.2918 14.7071C29.6825 15.0976 30.3158 15.0976 30.7065 14.7071L33.7074 11.7071Z" fill="#3860D9"/>
<path fill-rule="evenodd" clip-rule="evenodd" d="M0.291972 5.49012C-0.763342 2.86201 1.17237 0 4.0052 0H35.9948C38.8286 0 40.7644 2.86386 39.7071 5.49228L35.9371 14.8653C35.1753 16.7592 33.3385 18 31.2966 18H22.997V20H24.9975C25.5499 20 25.9978 20.4477 25.9978 21C25.9978 21.5523 25.5499 22 24.9975 22H17.9954V24.889C18.003 24.9569 18.0036 25.0246 17.9975 25.0912C18.0452 26.1535 18.9217 27 19.996 27C22.2058 27 23.9973 28.7909 23.9973 31C23.9973 33.2091 22.2058 35 19.996 35C18.7685 35 17.6694 34.4462 16.937 33.5785C16.5465 33.1393 16.159 32.6775 15.7828 32.2293C15.5865 31.9953 15.3932 31.7651 15.2043 31.5437C15.1907 31.5277 15.1776 31.5113 15.1649 31.4945C15.0136 31.2927 14.7917 31.1555 14.5434 31.1104L14.0399 31.0189C14.0096 31.264 13.9941 31.5135 13.9941 31.7669C13.9941 35.2518 17.0178 38 20.9962 38C24.9252 38 27.9984 35.03 27.9984 31.5C27.9984 28.4969 25.402 25.4333 21.8725 24.9923C21.3243 24.9238 20.9354 24.424 21.004 23.876C21.0725 23.3279 21.5724 22.9392 22.1206 23.0077C26.5935 23.5667 29.999 27.4311 29.999 31.5C29.999 36.2542 25.9066 40 20.9962 40C16.1354 40 11.9935 36.5663 11.9935 31.7669C11.9935 31.3742 12.0217 30.9872 12.0766 30.6077C12.2436 29.4523 13.3516 28.861 14.3306 29.0389L14.9013 29.1426C15.6346 29.2759 16.2916 29.6771 16.7449 30.2674C16.9505 30.5086 17.1485 30.7446 17.3435 30.9771C17.7093 31.4131 18.065 31.837 18.4411 32.2596C18.4478 32.2672 18.4543 32.2748 18.4608 32.2825C18.8294 32.7227 19.3798 33 19.996 33C21.1009 33 21.9966 32.1046 21.9966 31C21.9966 29.8954 21.1009 29 19.996 29C17.7877 29 15.9972 27.2115 15.9948 25.0044L15.9948 22H13.9941C13.4416 22 12.9938 21.5523 12.9938 21C12.9938 20.4477 13.4416 20 13.9941 20H15.9948V18H8.69703C6.65411 18 4.81654 16.7579 4.0555 14.8626L0.291972 5.49012ZM31.2966 16C32.5217 16 33.6238 15.2555 34.0809 14.1192L37.851 4.74614C38.3796 3.43193 37.4117 2 35.9948 2H4.0052C2.58879 2 1.62093 3.431 2.14859 4.74506L5.91211 14.1176C6.36874 15.2548 7.47128 16 8.69703 16H31.2966ZM17.9954 18V20H20.9963V18H17.9954Z" fill="#3860D9"/>
<g opacity="0.15">
<path d="M6.74678 3.56003C6.37345 2.28003 7.33345 1.00003 8.66678 1.00003H34.1668C36.8334 1.00003 38.7534 3.56003 38.0068 6.12003L36.0001 13H11.0001C10.1112 13 9.32901 12.4134 9.08012 11.56L6.74678 3.56003Z" fill="#3860D9"/>
<path d="M26.0001 28.5C26.0001 32.6421 22.6422 36 18.5001 36C16.5717 36 14.8133 35.2722 13.4846 34.0764C14.6055 36.9494 17.5474 39 21.0001 39C25.4184 39 29.0001 35.6421 29.0001 31.5C29.0001 28.7991 27.4773 26.4317 25.1927 25.1112C25.7091 26.129 26.0001 27.2805 26.0001 28.5Z" fill="#3860D9"/>
</g>
</svg>
