<svg width="40" height="40" viewBox="0 0 40 40" fill="none" xmlns="http://www.w3.org/2000/svg">
<g clip-path="url(#clip0)">
<path fill-rule="evenodd" clip-rule="evenodd" d="M0 2C0 0.895432 0.89543 0 2 0H7.58579C8.11622 0 8.62493 0.210714 9 0.585786L11.4142 3C11.7893 3.37507 12 3.88378 12 4.41421V9H18C19.1046 9 20 9.89543 20 11V15H37C38.6569 15 40 16.3431 40 18V23C40 23.5523 39.5523 24 39 24C38.4477 24 38 23.5523 38 23V18C38 17.4477 37.5523 17 37 17H30V20C30 20.5523 29.5523 21 29 21C28.4477 21 28 20.5523 28 20V17H20V23H26C26.5523 23 27 23.4477 27 24C27 24.5523 26.5523 25 26 25H20V29C20 30.1046 19.1046 31 18 31H12V35.5858C12 36.1162 11.7893 36.6249 11.4142 37L9 39.4142C8.62493 39.7893 8.11622 40 7.58579 40H2C0.89543 40 0 39.1046 0 38V2ZM12 29V11H18V29H12ZM8 2.41421L10 4.41421V35.5858L8 37.5858V18C8 17.4477 7.55228 17 7 17C6.44772 17 6 17.4477 6 18V38H2V2L6 2V13C6 13.5523 6.44772 14 7 14C7.55228 14 8 13.5523 8 13V2.41421Z" fill="#3860D9"/>
<path fill-rule="evenodd" clip-rule="evenodd" d="M29.366 23.2267C29.5977 23.0367 29.9023 22.9607 30.1961 23.0194L35.1961 24.0194C35.3897 24.0581 35.5675 24.1533 35.7071 24.2929L39.7071 28.2929C39.8946 28.4804 40 28.7348 40 29V39C40 39.5523 39.5523 40 39 40C38.4477 40 38 39.5523 38 39V29.4142L37.9386 29.3529L33 33.4684V39C33 39.5523 32.5523 40 32 40C31.4477 40 31 39.5523 31 39V33.2361L29.1056 29.4472C29.0361 29.3084 29 29.1553 29 29V24C29 23.7004 29.1343 23.4166 29.366 23.2267ZM34.507 25.9212L36.5186 27.9328L32.3298 31.4235L31 28.7639V25.2198L34.507 25.9212Z" fill="#3860D9"/>
<path fill-rule="evenodd" clip-rule="evenodd" d="M35.0893 7.20891C35.6041 6.56542 35.9303 5.87886 36.0112 5.16239C36.0934 4.43445 35.9125 3.75892 35.553 3.17249C34.863 2.04696 33.5331 1.26354 32.0795 0.766889C29.1397 -0.237542 24.9511 -0.322159 21.6152 1.07708C21.1059 1.2907 20.8662 1.87674 21.0798 2.38604C21.2934 2.89533 21.8795 3.13503 22.3888 2.92141C25.2257 1.73149 28.9052 1.79587 31.4328 2.65947C32.7129 3.09684 33.5165 3.67719 33.8479 4.2178C33.9991 4.46445 34.051 4.69758 34.0238 4.93798C33.9954 5.18984 33.8702 5.53128 33.5276 5.95953C33.3665 6.16086 33.1945 6.34563 33.0133 6.51464C32.9087 6.39177 32.7987 6.27409 32.6846 6.16187C31.9332 5.42279 30.9366 4.84533 29.8887 4.47521C27.8822 3.7665 25.1882 3.67818 23.5882 5.40946C23.169 5.863 22.9443 6.441 23.0415 7.06917C23.1316 7.65061 23.4737 8.1165 23.845 8.45933C24.5839 9.14137 25.7451 9.62765 26.9892 9.86606C28.4633 10.1485 30.2661 10.1178 31.9427 9.48404C31.7945 10.0511 31.393 10.556 30.8178 11.0002C30.0839 11.567 29.2119 11.9142 28.7531 12.037C28.2196 12.1798 27.9028 12.728 28.0456 13.2616C28.1884 13.7951 28.7366 14.1118 29.2701 13.9691C29.9322 13.7919 31.0573 13.3422 32.0403 12.5831C33.0209 11.8258 34.0058 10.6388 34.0058 8.99304C34.0058 8.77387 33.9841 8.56064 33.9436 8.35392C34.3523 8.02856 34.7374 7.64888 35.0893 7.20891ZM31.2821 7.58773L31.2861 7.59164C30.0193 8.08801 28.6051 8.13933 27.3656 7.9018C26.3301 7.70337 25.5682 7.32819 25.2016 6.98977C24.9772 6.7826 25.0807 6.70318 25.3044 6.53153L25.3091 6.52796C25.7876 6.16074 26.4596 6.02364 27.0349 6C27.7011 5.97262 28.4528 6.08912 29.2226 6.36104C30.0484 6.6527 30.7769 7.09076 31.2821 7.58773Z" fill="#3860D9"/>
<g opacity="0.15">
<path d="M4 5C4 4.44772 4.44772 4 5 4H10C10.5523 4 11 4.44772 11 5V38C11 38.5523 10.5523 39 10 39H5C4.44772 39 4 38.5523 4 38V5Z" fill="#3860D9"/>
<path d="M14 14C14 13.4477 14.4477 13 15 13H18C18.5523 13 19 13.4477 19 14V29C19 29.5523 18.5523 30 18 30H15C14.4477 30 14 29.5523 14 29V14Z" fill="#3860D9"/>
<path d="M22 24V20C22 19.4477 22.4477 19 23 19H39V23L34.3576 21.143C34.1214 21.0485 33.8693 21 33.6148 21H29C27.8954 21 27 21.8954 27 23V24H22Z" fill="#3860D9"/>
</g>
</g>
<defs>
<clipPath id="clip0">
<rect width="40" height="40" fill="white"/>
</clipPath>
</defs>
</svg>
