<svg width="40" height="40" viewBox="0 0 40 40" fill="none" xmlns="http://www.w3.org/2000/svg">
<path fill-rule="evenodd" clip-rule="evenodd" d="M13.5587 21.6822C11.8393 22.6744 11.0069 24.5426 10.9823 26.417C10.9682 27.4943 11.1913 28.6598 11.8026 29.7182C13.3574 32.41 16.7402 33.9458 19.4957 32.3557C22.2489 30.7668 22.6182 27.087 21.0619 24.3926C19.5366 21.752 16.3553 20.0683 13.5587 21.6822ZM12.9831 26.4432C12.9955 25.4997 13.2892 24.6608 13.8029 24.0508C13.8055 25.1316 14.0848 26.2389 14.663 27.2399C15.5941 28.8519 17.1435 30.0249 18.8317 30.3929C18.7259 30.4781 18.6136 30.5553 18.4952 30.6236C16.989 31.4929 14.7231 30.7742 13.5355 28.7182C13.1382 28.0303 12.9727 27.2352 12.9831 26.4432ZM19.329 25.3926C19.935 26.4417 20.0979 27.5571 19.911 28.5132C18.6379 28.4924 17.228 27.6805 16.3959 26.2399C15.8132 25.2312 15.6769 24.074 15.9154 23.0678C17.1337 23.0843 18.4555 23.8803 19.329 25.3926Z" fill="#3860D9"/>
<path fill-rule="evenodd" clip-rule="evenodd" d="M19.9907 0C12.5098 0 7.10313 0.992791 3.82193 1.85353C1.07863 2.57316 -0.345652 5.26196 0.0717212 7.91026L2.99985 26.4897C4.22589 34.2692 10.9333 40 18.8122 40H21.1769C29.0523 40 35.7577 34.2742 36.9878 26.4991L39.9277 7.91617C40.3474 5.26327 38.919 2.57012 36.1711 1.85138C32.884 0.991648 27.4708 0 19.9907 0ZM4.32986 3.78802C7.45288 2.96877 12.689 2 19.9907 2C27.2919 2 32.535 2.96769 35.6645 3.78623C37.2727 4.20685 38.235 5.81122 37.9514 7.60378L37.9076 7.88029C35.3437 6.87062 29.8966 5.42338 22.0453 5.00146C21.4936 4.97181 21.0222 5.39484 20.9926 5.94633C20.9629 6.49781 21.3861 6.96892 21.9379 6.99857C30.1391 7.4393 35.5342 9.02021 37.5863 9.91112L35.6067 22.4241C35.3988 21.8635 35.152 21.3213 34.8719 20.7959C33.4724 18.1701 31.2594 15.9981 29.0832 14.0376C27.8469 12.9239 25.8231 11.3119 23.4049 10.0374C20.9982 8.76895 18.1062 7.78457 15.1698 8.06024C10.2689 8.52033 6.05185 12.184 3.63997 17.6986L2.3037 9.2198C4.90044 8.2402 7.44745 7.39018 10.1339 6.98904C10.6804 6.90744 11.0572 6.39849 10.9756 5.85226C10.8939 5.30604 10.3847 4.92939 9.83825 5.01099C7.08751 5.42173 4.50898 6.26285 2.00526 7.19558C1.91548 5.5735 2.8474 4.1769 4.32986 3.78802ZM4.30175 21.8978L4.50156 23.1656C5.03127 21.0247 6.09327 19.0489 7.63457 17.4734C7.68975 17.3844 7.75998 17.3025 7.8449 17.2318C7.88606 17.1975 7.92917 17.1671 7.97377 17.1405C8.61963 16.5319 9.34203 15.9905 10.1375 15.5314C16.0888 12.097 23.8022 14.582 27.423 20.8505C30.7441 26.6001 29.5857 33.7386 24.7788 37.5312C28.7795 36.4682 32.1149 33.674 33.865 29.9342C33.8711 29.8903 33.8801 29.8464 33.8922 29.8025C34.7889 26.562 34.3021 23.9803 33.106 21.7363C31.8849 19.4453 29.9079 17.473 27.7435 15.5232C26.5861 14.4805 24.6983 12.9801 22.4716 11.8065C20.2333 10.6268 17.7471 9.82708 15.3569 10.0515C10.6005 10.498 6.17764 14.7844 4.33788 21.7867C4.32786 21.8249 4.31576 21.8619 4.30175 21.8978ZM8.4708 19.5446L10.218 21.6402C10.5717 22.0645 11.2025 22.1218 11.627 21.7682C12.0515 21.4147 12.1088 20.7841 11.7551 20.3598L9.89 18.1227C10.279 17.8066 10.6954 17.5189 11.138 17.2635C14.7842 15.1593 19.3705 15.7266 22.7641 18.434L21.2104 20.3753C20.8652 20.8066 20.9351 21.4359 21.3666 21.7809C21.7981 22.1259 22.4276 22.056 22.7728 21.6247L24.2214 19.8148C24.7659 20.4258 25.2598 21.1054 25.6902 21.8505C28.38 26.5073 27.6132 32.0359 24.2908 35.2957L22.2599 32.8598C21.9062 32.4356 21.2754 32.3782 20.8509 32.7318C20.4264 33.0854 20.3691 33.7159 20.7228 34.1402L22.7225 36.5387C22.6129 36.6081 22.5015 36.6754 22.3884 36.7407C21.0097 37.5363 19.5317 37.9118 17.9861 37.9705C17.971 37.9711 17.956 37.972 17.9411 37.9732C15.1109 37.7986 12.486 36.7792 10.3382 35.1472L11.737 33.6473C12.1138 33.2433 12.0916 32.6105 11.6874 32.2339C11.2832 31.8573 10.6502 31.8795 10.2734 32.2835L8.83487 33.826C8.48063 33.4668 8.14542 33.0883 7.831 32.6919C7.82192 32.5421 7.77882 32.392 7.69863 32.2532C5.22984 27.9791 5.75472 22.8906 8.4708 19.5446Z" fill="#3860D9"/>
<g opacity="0.15">
<path d="M3.08643 20.2477L1.8252 8.47657C2.94625 7.53069 7.47333 5.5338 16.6441 5.53381C24.7472 5.53383 32.0707 7.16842 36.1218 8.07261C36.852 8.2356 37.4762 8.37491 37.9792 8.47657L35.9823 26.5536L35.9484 26.4429C35.4118 24.6901 34.6808 22.3028 32.7442 19.4304C34.2274 21.8158 35.2633 24.4309 35.2633 26.8616C35.2633 31.3753 30.8762 38 23.5 38C25.1747 37.2452 29.2747 34.3889 30.5 30C31.3744 26.8681 30.8782 20.5261 27.0239 13.5432C23.5387 11.0211 19.3882 9.20091 16.6441 9.00206C9.3923 8.47657 5.08328 16.0787 3.08643 20.2477Z" fill="#3860D9"/>
<path d="M9.00002 25C7.95505 29.1795 10.5 34.8334 12 37.5C8.99994 35.5 5.50004 31.5 5.00002 29C4.68991 27.4496 4.00003 21 9.00002 17.5C13 14.7 17.5 14.75 19.5 15.5C20.046 15.7047 20.5221 15.8687 20.9463 16.0148C23.0079 16.7249 23.8412 17.0119 25.5 19.5C25.5 19.5 20 18 17 18.5C13.0237 19.1627 10.0001 21 9.00002 25Z" fill="#3860D9"/>
<path d="M15 22V25L16 28L20 30L18 32H15L13 30L12 27V25L13 23L15 22Z" fill="#3860D9"/>
</g>
</svg>
